<?xml version="1.0" encoding="UTF-8" standalone="no"?><!DOCTYPE svg PUBLIC "-//W3C//DTD SVG 1.1//EN" "http://www.w3.org/Graphics/SVG/1.1/DTD/svg11.dtd"><svg version="1.1" xmlns="http://www.w3.org/2000/svg" xmlns:xlink="http://www.w3.org/1999/xlink"><text x="20" y="50">label</text><text x="20" y="90">label</text><text x="60" y="20">label</text><text x="100" y="20">label</text><text x="140" y="20">label</text><text x="180" y="20">label</text><text x="220" y="20">label</text><text x="260" y="20">label</text><text x="300" y="20">label</text><text x="340" y="20">label</text><text x="380" y="20">label</text><text x="420" y="20">label</text><text x="460" y="20">label</text><text x="500" y="20">label</text><text x="540" y="20">label</text><text x="580" y="20">label</text><text x="620" y="20">label</text><a xlink:href="https://tglman.com" xlink:title="Tglman.com"><rect x="60" y="30" rx="3" ry="3" width="15" height="15" style="fill:#000064;stroke-width:1;stroke:#000032"/></a><a xlink:href="https://tglman.com" xlink:title="Tglman.com"><rect x="80" y="30" rx="3" ry="3" width="15" height="15" style="fill:#00006e;stroke-width:1;stroke:#000032"/></a><a xlink:href="https://tglman.com" xlink:title="Tglman.com"><rect x="100" y="30" rx="3" ry="3" width="15" height="15" style="fill:#000078;stroke-width:1;stroke:#000032"/></a><a xlink:href="https://tglman.com" xlink:title="Tglman.com"><rect x="120" y="30" rx="3" ry="3" width="15" height="15" style="fill:#000082;stroke-width:1;stroke:#000032"/></a><a xlink:href="https://tglman.com" xlink:title="Tglman.com"><rect x="140" y="30" rx="3" ry="3" width="15" height="15" style="fill:#00008c;stroke-width:1;stroke:#000032"/></a><a xlink:href="https://tglman.com" xlink:title="Tglman.com"><rect x="160" y="30" rx="3" ry="3" width="15" height="15" style="fill:#000096;stroke-width:1;stroke:#000032"/></a><a xlink:href="https://tglman.com" xlink:title="Tglman.com"><rect x="180" y="30" rx="3" ry="3" width="15" height="15" style="fill:#0000a0;stroke-width:1;stroke:#000032"/></a><a xlink:href="https://tglman.com" xlink:title="Tglman.com"><rect x="200" y="30" rx="3" ry="3" width="15" height="15" style="fill:#0000aa;stroke-width:1;stroke:#000032"/></a><a xlink:href="https://tglman.com" xlink:title="Tglman.com"><rect x="220" y="30" rx="3" ry="3" width="15" height="15" style="fill:#0000b4;stroke-width:1;stroke:#000032"/></a><a xlink:href="https://tglman.com" xlink:title="Tglman.com"><rect x="240" y="30" rx="3" ry="3" width="15" height="15" style="fill:#0000be;stroke-width:1;stroke:#000032"/></a><a xlink:href="https://tglman.com" xlink:title="Tglman.com"><rect x="260" y="30" rx="3" ry="3" width="15" height="15" style="fill:#0000c8;stroke-width:1;stroke:#000032"/></a><a xlink:href="https://tglman.com" xlink:title="Tglman.com"><rect x="280" y="30" rx="3" ry="3" width="15" height="15" style="fill:#0000d2;stroke-width:1;stroke:#000032"/></a><a xlink:href="https://tglman.com" xlink:title="Tglman.com"><rect x="300" y="30" rx="3" ry="3" width="15" height="15" style="fill:#0000dc;stroke-width:1;stroke:#000032"/></a><a xlink:href="https://tglman.com" xlink:title="Tglman.com"><rect x="320" y="30" rx="3" ry="3" width="15" height="15" style="fill:#0000e6;stroke-width:1;stroke:#000032"/></a><a xlink:href="https://tglman.com" xlink:title="Tglman.com"><rect x="340" y="30" rx="3" ry="3" width="15" height="15" style="fill:#0000f0;stroke-width:1;stroke:#000032"/></a><a xlink:href="https://tglman.com" xlink:title="Tglman.com"><rect x="360" y="30" rx="3" ry="3" width="15" height="15" style="fill:#0000fa;stroke-width:1;stroke:#000032"/></a><a xlink:href="https://tglman.com" xlink:title="Tglman.com"><rect x="380" y="30" rx="3" ry="3" width="15" height="15" style="fill:#0000ff;stroke-width:1;stroke:#000032"/></a><a xlink:href="https://tglman.com" xlink:title="Tglman.com"><rect x="400" y="30" rx="3" ry="3" width="15" height="15" style="fill:#0000ff;stroke-width:1;stroke:#000032"/></a><a xlink:href="https://tglman.com" xlink:title="Tglman.com"><rect x="420" y="30" rx="3" ry="3" width="15" height="15" style="fill:#0000ff;stroke-width:1;stroke:#000032"/></a><a xlink:href="https://tglman.com" xlink:title="Tglman.com"><rect x="440" y="30" rx="3" ry="3" width="15" height="15" style="fill:#0000ff;stroke-width:1;stroke:#000032"/></a><a xlink:href="https://tglman.com" xlink:title="Tglman.com"><rect x="460" y="30" rx="3" ry="3" width="15" height="15" style="fill:#0000ff;stroke-width:1;stroke:#000032"/></a><a xlink:href="https://tglman.com" xlink:title="Tglman.com"><rect x="480" y="30" rx="3" ry="3" width="15" height="15" style="fill:#0000ff;stroke-width:1;stroke:#000032"/></a><a xlink:href="https://tglman.com" xlink:title="Tglman.com"><rect x="500" y="30" rx="3" ry="3" width="15" height="15" style="fill:#0000ff;stroke-width:1;stroke:#000032"/></a><a xlink:href="https://tglman.com" xlink:title="Tglman.com"><rect x="520" y="30" rx="3" ry="3" width="15" height="15" style="fill:#0000ff;stroke-width:1;stroke:#000032"/></a><a xlink:href="https://tglman.com" xlink:title="Tglman.com"><rect x="540" y="30" rx="3" ry="3" width="15" height="15" style="fill:#0000ff;stroke-width:1;stroke:#000032"/></a><a xlink:href="https://tglman.com" xlink:title="Tglman.com"><rect x="560" y="30" rx="3" ry="3" width="15" height="15" style="fill:#0000ff;stroke-width:1;stroke:#000032"/></a><a xlink:href="https://tglman.com" xlink:title="Tglman.com"><rect x="580" y="30" rx="3" ry="3" width="15" height="15" style="fill:#0000ff;stroke-width:1;stroke:#000032"/></a><a xlink:href="https://tglman.com" xlink:title="Tglman.com"><rect x="600" y="30" rx="3" ry="3" width="15" height="15" style="fill:#0000ff;stroke-width:1;stroke:#000032"/></a><a xlink:href="https://tglman.com" xlink:title="Tglman.com"><rect x="620" y="30" rx="3" ry="3" width="15" height="15" style="fill:#0000ff;stroke-width:1;stroke:#000032"/></a><a xlink:href="https://tglman.com" xlink:title="Tglman.com"><rect x="640" y="30" rx="3" ry="3" width="15" height="15" style="fill:#0000ff;stroke-width:1;stroke:#000032"/></a><a xlink:href="https://tglman.com" xlink:title="Tglman.com"><rect x="60" y="50" rx="3" ry="3" width="15" height="15" style="fill:#00006e;stroke-width:1;stroke:#000032"/></a><a xlink:href="https://tglman.com" xlink:title="Tglman.com"><rect x="80" y="50" rx="3" ry="3" width="15" height="15" style="fill:#000078;stroke-width:1;stroke:#000032"/></a><a xlink:href="https://tglman.com" xlink:title="Tglman.com"><rect x="100" y="50" rx="3" ry="3" width="15" height="15" style="fill:#000082;stroke-width:1;stroke:#000032"/></a><a xlink:href="https://tglman.com" xlink:title="Tglman.com"><rect x="120" y="50" rx="3" ry="3" width="15" height="15" style="fill:#00008c;stroke-width:1;stroke:#000032"/></a><a xlink:href="https://tglman.com" xlink:title="Tglman.com"><rect x="140" y="50" rx="3" ry="3" width="15" height="15" style="fill:#000096;stroke-width:1;stroke:#000032"/></a><a xlink:href="https://tglman.com" xlink:title="Tglman.com"><rect x="160" y="50" rx="3" ry="3" width="15" height="15" style="fill:#0000a0;stroke-width:1;stroke:#000032"/></a><a xlink:href="https://tglman.com" xlink:title="Tglman.com"><rect x="180" y="50" rx="3" ry="3" width="15" height="15" style="fill:#0000aa;stroke-width:1;stroke:#000032"/></a><a xlink:href="https://tglman.com" xlink:title="Tglman.com"><rect x="200" y="50" rx="3" ry="3" width="15" height="15" style="fill:#0000b4;stroke-width:1;stroke:#000032"/></a><a xlink:href="https://tglman.com" xlink:title="Tglman.com"><rect x="220" y="50" rx="3" ry="3" width="15" height="15" style="fill:#0000be;stroke-width:1;stroke:#000032"/></a><a xlink:href="https://tglman.com" xlink:title="Tglman.com"><rect x="240" y="50" rx="3" ry="3" width="15" height="15" style="fill:#0000c8;stroke-width:1;stroke:#000032"/></a><a xlink:href="https://tglman.com" xlink:title="Tglman.com"><rect x="260" y="50" rx="3" ry="3" width="15" height="15" style="fill:#0000d2;stroke-width:1;stroke:#000032"/></a><a xlink:href="https://tglman.com" xlink:title="Tglman.com"><rect x="280" y="50" rx="3" ry="3" width="15" height="15" style="fill:#0000dc;stroke-width:1;stroke:#000032"/></a><a xlink:href="https://tglman.com" xlink:title="Tglman.com"><rect x="300" y="50" rx="3" ry="3" width="15" height="15" style="fill:#0000e6;stroke-width:1;stroke:#000032"/></a><a xlink:href="https://tglman.com" xlink:title="Tglman.com"><rect x="320" y="50" rx="3" ry="3" width="15" height="15" style="fill:#0000f0;stroke-width:1;stroke:#000032"/></a><a xlink:href="https://tglman.com" xlink:title="Tglman.com"><rect x="340" y="50" rx="3" ry="3" width="15" height="15" style="fill:#0000fa;stroke-width:1;stroke:#000032"/></a><a xlink:href="https://tglman.com" xlink:title="Tglman.com"><rect x="360" y="50" rx="3" ry="3" width="15" height="15" style="fill:#0000ff;stroke-width:1;stroke:#000032"/></a><a xlink:href="https://tglman.com" xlink:title="Tglman.com"><rect x="380" y="50" rx="3" ry="3" width="15" height="15" style="fill:#0000ff;stroke-width:1;stroke:#000032"/></a><a xlink:href="https://tglman.com" xlink:title="Tglman.com"><rect x="400" y="50" rx="3" ry="3" width="15" height="15" style="fill:#0000ff;stroke-width:1;stroke:#000032"/></a><a xlink:href="https://tglman.com" xlink:title="Tglman.com"><rect x="420" y="50" rx="3" ry="3" width="15" height="15" style="fill:#0000ff;stroke-width:1;stroke:#000032"/></a><a xlink:href="https://tglman.com" xlink:title="Tglman.com"><rect x="440" y="50" rx="3" ry="3" width="15" height="15" style="fill:#0000ff;stroke-width:1;stroke:#000032"/></a><a xlink:href="https://tglman.com" xlink:title="Tglman.com"><rect x="460" y="50" rx="3" ry="3" width="15" height="15" style="fill:#0000ff;stroke-width:1;stroke:#000032"/></a><a xlink:href="https://tglman.com" xlink:title="Tglman.com"><rect x="480" y="50" rx="3" ry="3" width="15" height="15" style="fill:#0000ff;stroke-width:1;stroke:#000032"/></a><a xlink:href="https://tglman.com" xlink:title="Tglman.com"><rect x="500" y="50" rx="3" ry="3" width="15" height="15" style="fill:#0000ff;stroke-width:1;stroke:#000032"/></a><a xlink:href="https://tglman.com" xlink:title="Tglman.com"><rect x="520" y="50" rx="3" ry="3" width="15" height="15" style="fill:#0000ff;stroke-width:1;stroke:#000032"/></a><a xlink:href="https://tglman.com" xlink:title="Tglman.com"><rect x="540" y="50" rx="3" ry="3" width="15" height="15" style="fill:#0000ff;stroke-width:1;stroke:#000032"/></a><a xlink:href="https://tglman.com" xlink:title="Tglman.com"><rect x="560" y="50" rx="3" ry="3" width="15" height="15" style="fill:#0000ff;stroke-width:1;stroke:#000032"/></a><a xlink:href="https://tglman.com" xlink:title="Tglman.com"><rect x="580" y="50" rx="3" ry="3" width="15" height="15" style="fill:#0000ff;stroke-width:1;stroke:#000032"/></a><a xlink:href="https://tglman.com" xlink:title="Tglman.com"><rect x="600" y="50" rx="3" ry="3" width="15" height="15" style="fill:#0000ff;stroke-width:1;stroke:#000032"/></a><a xlink:href="https://tglman.com" xlink:title="Tglman.com"><rect x="620" y="50" rx="3" ry="3" width="15" height="15" style="fill:#0000ff;stroke-width:1;stroke:#000032"/></a><a xlink:href="https://tglman.com" xlink:title="Tglman.com"><rect x="640" y="50" rx="3" ry="3" width="15" height="15" style="fill:#0000ff;stroke-width:1;stroke:#000032"/></a><a xlink:href="https://tglman.com" xlink:title="Tglman.com"><rect x="60" y="70" rx="3" ry="3" width="15" height="15" style="fill:#000078;stroke-width:1;stroke:#000032"/></a><a xlink:href="https://tglman.com" xlink:title="Tglman.com"><rect x="80" y="70" rx="3" ry="3" width="15" height="15" style="fill:#000082;stroke-width:1;stroke:#000032"/></a><a xlink:href="https://tglman.com" xlink:title="Tglman.com"><rect x="100" y="70" rx="3" ry="3" width="15" height="15" style="fill:#00008c;stroke-width:1;stroke:#000032"/></a><a xlink:href="https://tglman.com" xlink:title="Tglman.com"><rect x="120" y="70" rx="3" ry="3" width="15" height="15" style="fill:#000096;stroke-width:1;stroke:#000032"/></a><a xlink:href="https://tglman.com" xlink:title="Tglman.com"><rect x="140" y="70" rx="3" ry="3" width="15" height="15" style="fill:#0000a0;stroke-width:1;stroke:#000032"/></a><a xlink:href="https://tglman.com" xlink:title="Tglman.com"><rect x="160" y="70" rx="3" ry="3" width="15" height="15" style="fill:#0000aa;stroke-width:1;stroke:#000032"/></a><a xlink:href="https://tglman.com" xlink:title="Tglman.com"><rect x="180" y="70" rx="3" ry="3" width="15" height="15" style="fill:#0000b4;stroke-width:1;stroke:#000032"/></a><a xlink:href="https://tglman.com" xlink:title="Tglman.com"><rect x="200" y="70" rx="3" ry="3" width="15" height="15" style="fill:#0000be;stroke-width:1;stroke:#000032"/></a><a xlink:href="https://tglman.com" xlink:title="Tglman.com"><rect x="220" y="70" rx="3" ry="3" width="15" height="15" style="fill:#0000c8;stroke-width:1;stroke:#000032"/></a><a xlink:href="https://tglman.com" xlink:title="Tglman.com"><rect x="240" y="70" rx="3" ry="3" width="15" height="15" style="fill:#0000d2;stroke-width:1;stroke:#000032"/></a><a xlink:href="https://tglman.com" xlink:title="Tglman.com"><rect x="260" y="70" rx="3" ry="3" width="15" height="15" style="fill:#0000dc;stroke-width:1;stroke:#000032"/></a><a xlink:href="https://tglman.com" xlink:title="Tglman.com"><rect x="280" y="70" rx="3" ry="3" width="15" height="15" style="fill:#0000e6;stroke-width:1;stroke:#000032"/></a><a xlink:href="https://tglman.com" xlink:title="Tglman.com"><rect x="300" y="70" rx="3" ry="3" width="15" height="15" style="fill:#0000f0;stroke-width:1;stroke:#000032"/></a><a xlink:href="https://tglman.com" xlink:title="Tglman.com"><rect x="320" y="70" rx="3" ry="3" width="15" height="15" style="fill:#0000fa;stroke-width:1;stroke:#000032"/></a><a xlink:href="https://tglman.com" xlink:title="Tglman.com"><rect x="340" y="70" rx="3" ry="3" width="15" height="15" style="fill:#0000ff;stroke-width:1;stroke:#000032"/></a><a xlink:href="https://tglman.com" xlink:title="Tglman.com"><rect x="360" y="70" rx="3" ry="3" width="15" height="15" style="fill:#0000ff;stroke-width:1;stroke:#000032"/></a><a xlink:href="https://tglman.com" xlink:title="Tglman.com"><rect x="380" y="70" rx="3" ry="3" width="15" height="15" style="fill:#0000ff;stroke-width:1;stroke:#000032"/></a><a xlink:href="https://tglman.com" xlink:title="Tglman.com"><rect x="400" y="70" rx="3" ry="3" width="15" height="15" style="fill:#0000ff;stroke-width:1;stroke:#000032"/></a><a xlink:href="https://tglman.com" xlink:title="Tglman.com"><rect x="420" y="70" rx="3" ry="3" width="15" height="15" style="fill:#0000ff;stroke-width:1;stroke:#000032"/></a><a xlink:href="https://tglman.com" xlink:title="Tglman.com"><rect x="440" y="70" rx="3" ry="3" width="15" height="15" style="fill:#0000ff;stroke-width:1;stroke:#000032"/></a><a xlink:href="https://tglman.com" xlink:title="Tglman.com"><rect x="460" y="70" rx="3" ry="3" width="15" height="15" style="fill:#0000ff;stroke-width:1;stroke:#000032"/></a><a xlink:href="https://tglman.com" xlink:title="Tglman.com"><rect x="480" y="70" rx="3" ry="3" width="15" height="15" style="fill:#0000ff;stroke-width:1;stroke:#000032"/></a><a xlink:href="https://tglman.com" xlink:title="Tglman.com"><rect x="500" y="70" rx="3" ry="3" width="15" height="15" style="fill:#0000ff;stroke-width:1;stroke:#000032"/></a><a xlink:href="https://tglman.com" xlink:title="Tglman.com"><rect x="520" y="70" rx="3" ry="3" width="15" height="15" style="fill:#0000ff;stroke-width:1;stroke:#000032"/></a><a xlink:href="https://tglman.com" xlink:title="Tglman.com"><rect x="540" y="70" rx="3" ry="3" width="15" height="15" style="fill:#0000ff;stroke-width:1;stroke:#000032"/></a><a xlink:href="https://tglman.com" xlink:title="Tglman.com"><rect x="560" y="70" rx="3" ry="3" width="15" height="15" style="fill:#0000ff;stroke-width:1;stroke:#000032"/></a><a xlink:href="https://tglman.com" xlink:title="Tglman.com"><rect x="580" y="70" rx="3" ry="3" width="15" height="15" style="fill:#0000ff;stroke-width:1;stroke:#000032"/></a><a xlink:href="https://tglman.com" xlink:title="Tglman.com"><rect x="600" y="70" rx="3" ry="3" width="15" height="15" style="fill:#0000ff;stroke-width:1;stroke:#000032"/></a><a xlink:href="https://tglman.com" xlink:title="Tglman.com"><rect x="620" y="70" rx="3" ry="3" width="15" height="15" style="fill:#0000ff;stroke-width:1;stroke:#000032"/></a><a xlink:href="https://tglman.com" xlink:title="Tglman.com"><rect x="640" y="70" rx="3" ry="3" width="15" height="15" style="fill:#0000ff;stroke-width:1;stroke:#000032"/></a><a xlink:href="https://tglman.com" xlink:title="Tglman.com"><rect x="60" y="90" rx="3" ry="3" width="15" height="15" style="fill:#000082;stroke-width:1;stroke:#000032"/></a><a xlink:href="https://tglman.com" xlink:title="Tglman.com"><rect x="80" y="90" rx="3" ry="3" width="15" height="15" style="fill:#00008c;stroke-width:1;stroke:#000032"/></a><a xlink:href="https://tglman.com" xlink:title="Tglman.com"><rect x="100" y="90" rx="3" ry="3" width="15" height="15" style="fill:#000096;stroke-width:1;stroke:#000032"/></a><a xlink:href="https://tglman.com" xlink:title="Tglman.com"><rect x="120" y="90" rx="3" ry="3" width="15" height="15" style="fill:#0000a0;stroke-width:1;stroke:#000032"/></a><a xlink:href="https://tglman.com" xlink:title="Tglman.com"><rect x="140" y="90" rx="3" ry="3" width="15" height="15" style="fill:#0000aa;stroke-width:1;stroke:#000032"/></a><a xlink:href="https://tglman.com" xlink:title="Tglman.com"><rect x="160" y="90" rx="3" ry="3" width="15" height="15" style="fill:#0000b4;stroke-width:1;stroke:#000032"/></a><a xlink:href="https://tglman.com" xlink:title="Tglman.com"><rect x="180" y="90" rx="3" ry="3" width="15" height="15" style="fill:#0000be;stroke-width:1;stroke:#000032"/></a><a xlink:href="https://tglman.com" xlink:title="Tglman.com"><rect x="200" y="90" rx="3" ry="3" width="15" height="15" style="fill:#0000c8;stroke-width:1;stroke:#000032"/></a><a xlink:href="https://tglman.com" xlink:title="Tglman.com"><rect x="220" y="90" rx="3" ry="3" width="15" height="15" style="fill:#0000d2;stroke-width:1;stroke:#000032"/></a><a xlink:href="https://tglman.com" xlink:title="Tglman.com"><rect x="240" y="90" rx="3" ry="3" width="15" height="15" style="fill:#0000dc;stroke-width:1;stroke:#000032"/></a><a xlink:href="https://tglman.com" xlink:title="Tglman.com"><rect x="260" y="90" rx="3" ry="3" width="15" height="15" style="fill:#0000e6;stroke-width:1;stroke:#000032"/></a><a xlink:href="https://tglman.com" xlink:title="Tglman.com"><rect x="280" y="90" rx="3" ry="3" width="15" height="15" style="fill:#0000f0;stroke-width:1;stroke:#000032"/></a><a xlink:href="https://tglman.com" xlink:title="Tglman.com"><rect x="300" y="90" rx="3" ry="3" width="15" height="15" style="fill:#0000fa;stroke-width:1;stroke:#000032"/></a><a xlink:href="https://tglman.com" xlink:title="Tglman.com"><rect x="320" y="90" rx="3" ry="3" width="15" height="15" style="fill:#0000ff;stroke-width:1;stroke:#000032"/></a><a xlink:href="https://tglman.com" xlink:title="Tglman.com"><rect x="340" y="90" rx="3" ry="3" width="15" height="15" style="fill:#0000ff;stroke-width:1;stroke:#000032"/></a><a xlink:href="https://tglman.com" xlink:title="Tglman.com"><rect x="360" y="90" rx="3" ry="3" width="15" height="15" style="fill:#0000ff;stroke-width:1;stroke:#000032"/></a><a xlink:href="https://tglman.com" xlink:title="Tglman.com"><rect x="380" y="90" rx="3" ry="3" width="15" height="15" style="fill:#0000ff;stroke-width:1;stroke:#000032"/></a><a xlink:href="https://tglman.com" xlink:title="Tglman.com"><rect x="400" y="90" rx="3" ry="3" width="15" height="15" style="fill:#0000ff;stroke-width:1;stroke:#000032"/></a><a xlink:href="https://tglman.com" xlink:title="Tglman.com"><rect x="420" y="90" rx="3" ry="3" width="15" height="15" style="fill:#0000ff;stroke-width:1;stroke:#000032"/></a><a xlink:href="https://tglman.com" xlink:title="Tglman.com"><rect x="440" y="90" rx="3" ry="3" width="15" height="15" style="fill:#0000ff;stroke-width:1;stroke:#000032"/></a><a xlink:href="https://tglman.com" xlink:title="Tglman.com"><rect x="460" y="90" rx="3" ry="3" width="15" height="15" style="fill:#0000ff;stroke-width:1;stroke:#000032"/></a><a xlink:href="https://tglman.com" xlink:title="Tglman.com"><rect x="480" y="90" rx="3" ry="3" width="15" height="15" style="fill:#0000ff;stroke-width:1;stroke:#000032"/></a><a xlink:href="https://tglman.com" xlink:title="Tglman.com"><rect x="500" y="90" rx="3" ry="3" width="15" height="15" style="fill:#0000ff;stroke-width:1;stroke:#000032"/></a><a xlink:href="https://tglman.com" xlink:title="Tglman.com"><rect x="520" y="90" rx="3" ry="3" width="15" height="15" style="fill:#0000ff;stroke-width:1;stroke:#000032"/></a><a xlink:href="https://tglman.com" xlink:title="Tglman.com"><rect x="540" y="90" rx="3" ry="3" width="15" height="15" style="fill:#0000ff;stroke-width:1;stroke:#000032"/></a><a xlink:href="https://tglman.com" xlink:title="Tglman.com"><rect x="560" y="90" rx="3" ry="3" width="15" height="15" style="fill:#0000ff;stroke-width:1;stroke:#000032"/></a><a xlink:href="https://tglman.com" xlink:title="Tglman.com"><rect x="580" y="90" rx="3" ry="3" width="15" height="15" style="fill:#0000ff;stroke-width:1;stroke:#000032"/></a><a xlink:href="https://tglman.com" xlink:title="Tglman.com"><rect x="600" y="90" rx="3" ry="3" width="15" height="15" style="fill:#0000ff;stroke-width:1;stroke:#000032"/></a><a xlink:href="https://tglman.com" xlink:title="Tglman.com"><rect x="620" y="90" rx="3" ry="3" width="15" height="15" style="fill:#0000ff;stroke-width:1;stroke:#000032"/></a><a xlink:href="https://tglman.com" xlink:title="Tglman.com"><rect x="640" y="90" rx="3" ry="3" width="15" height="15" style="fill:#0000ff;stroke-width:1;stroke:#000032"/></a><a xlink:href="https://tglman.com" xlink:title="Tglman.com"><rect x="60" y="110" rx="3" ry="3" width="15" height="15" style="fill:#00008c;stroke-width:1;stroke:#000032"/></a><a xlink:href="https://tglman.com" xlink:title="Tglman.com"><rect x="80" y="110" rx="3" ry="3" width="15" height="15" style="fill:#000096;stroke-width:1;stroke:#000032"/></a><a xlink:href="https://tglman.com" xlink:title="Tglman.com"><rect x="100" y="110" rx="3" ry="3" width="15" height="15" style="fill:#0000a0;stroke-width:1;stroke:#000032"/></a><a xlink:href="https://tglman.com" xlink:title="Tglman.com"><rect x="120" y="110" rx="3" ry="3" width="15" height="15" style="fill:#0000aa;stroke-width:1;stroke:#000032"/></a><a xlink:href="https://tglman.com" xlink:title="Tglman.com"><rect x="140" y="110" rx="3" ry="3" width="15" height="15" style="fill:#0000b4;stroke-width:1;stroke:#000032"/></a><a xlink:href="https://tglman.com" xlink:title="Tglman.com"><rect x="160" y="110" rx="3" ry="3" width="15" height="15" style="fill:#0000be;stroke-width:1;stroke:#000032"/></a><a xlink:href="https://tglman.com" xlink:title="Tglman.com"><rect x="180" y="110" rx="3" ry="3" width="15" height="15" style="fill:#0000c8;stroke-width:1;stroke:#000032"/></a><a xlink:href="https://tglman.com" xlink:title="Tglman.com"><rect x="200" y="110" rx="3" ry="3" width="15" height="15" style="fill:#0000d2;stroke-width:1;stroke:#000032"/></a><a xlink:href="https://tglman.com" xlink:title="Tglman.com"><rect x="220" y="110" rx="3" ry="3" width="15" height="15" style="fill:#0000dc;stroke-width:1;stroke:#000032"/></a><a xlink:href="https://tglman.com" xlink:title="Tglman.com"><rect x="240" y="110" rx="3" ry="3" width="15" height="15" style="fill:#0000e6;stroke-width:1;stroke:#000032"/></a><a xlink:href="https://tglman.com" xlink:title="Tglman.com"><rect x="260" y="110" rx="3" ry="3" width="15" height="15" style="fill:#0000f0;stroke-width:1;stroke:#000032"/></a><a xlink:href="https://tglman.com" xlink:title="Tglman.com"><rect x="280" y="110" rx="3" ry="3" width="15" height="15" style="fill:#0000fa;stroke-width:1;stroke:#000032"/></a><a xlink:href="https://tglman.com" xlink:title="Tglman.com"><rect x="300" y="110" rx="3" ry="3" width="15" height="15" style="fill:#0000ff;stroke-width:1;stroke:#000032"/></a><a xlink:href="https://tglman.com" xlink:title="Tglman.com"><rect x="320" y="110" rx="3" ry="3" width="15" height="15" style="fill:#0000ff;stroke-width:1;stroke:#000032"/></a><a xlink:href="https://tglman.com" xlink:title="Tglman.com"><rect x="340" y="110" rx="3" ry="3" width="15" height="15" style="fill:#0000ff;stroke-width:1;stroke:#000032"/></a><a xlink:href="https://tglman.com" xlink:title="Tglman.com"><rect x="360" y="110" rx="3" ry="3" width="15" height="15" style="fill:#0000ff;stroke-width:1;stroke:#000032"/></a><a xlink:href="https://tglman.com" xlink:title="Tglman.com"><rect x="380" y="110" rx="3" ry="3" width="15" height="15" style="fill:#0000ff;stroke-width:1;stroke:#000032"/></a><a xlink:href="https://tglman.com" xlink:title="Tglman.com"><rect x="400" y="110" rx="3" ry="3" width="15" height="15" style="fill:#0000ff;stroke-width:1;stroke:#000032"/></a><a xlink:href="https://tglman.com" xlink:title="Tglman.com"><rect x="420" y="110" rx="3" ry="3" width="15" height="15" style="fill:#0000ff;stroke-width:1;stroke:#000032"/></a><a xlink:href="https://tglman.com" xlink:title="Tglman.com"><rect x="440" y="110" rx="3" ry="3" width="15" height="15" style="fill:#0000ff;stroke-width:1;stroke:#000032"/></a><a xlink:href="https://tglman.com" xlink:title="Tglman.com"><rect x="460" y="110" rx="3" ry="3" width="15" height="15" style="fill:#0000ff;stroke-width:1;stroke:#000032"/></a><a xlink:href="https://tglman.com" xlink:title="Tglman.com"><rect x="480" y="110" rx="3" ry="3" width="15" height="15" style="fill:#0000ff;stroke-width:1;stroke:#000032"/></a><a xlink:href="https://tglman.com" xlink:title="Tglman.com"><rect x="500" y="110" rx="3" ry="3" width="15" height="15" style="fill:#0000ff;stroke-width:1;stroke:#000032"/></a><a xlink:href="https://tglman.com" xlink:title="Tglman.com"><rect x="520" y="110" rx="3" ry="3" width="15" height="15" style="fill:#0000ff;stroke-width:1;stroke:#000032"/></a><a xlink:href="https://tglman.com" xlink:title="Tglman.com"><rect x="540" y="110" rx="3" ry="3" width="15" height="15" style="fill:#0000ff;stroke-width:1;stroke:#000032"/></a><a xlink:href="https://tglman.com" xlink:title="Tglman.com"><rect x="560" y="110" rx="3" ry="3" width="15" height="15" style="fill:#0000ff;stroke-width:1;stroke:#000032"/></a><a xlink:href="https://tglman.com" xlink:title="Tglman.com"><rect x="580" y="110" rx="3" ry="3" width="15" height="15" style="fill:#0000ff;stroke-width:1;stroke:#000032"/></a><a xlink:href="https://tglman.com" xlink:title="Tglman.com"><rect x="600" y="110" rx="3" ry="3" width="15" height="15" style="fill:#0000ff;stroke-width:1;stroke:#000032"/></a><a xlink:href="https://tglman.com" xlink:title="Tglman.com"><rect x="620" y="110" rx="3" ry="3" width="15" height="15" style="fill:#0000ff;stroke-width:1;stroke:#000032"/></a><a xlink:href="https://tglman.com" xlink:title="Tglman.com"><rect x="640" y="110" rx="3" ry="3" width="15" height="15" style="fill:#0000ff;stroke-width:1;stroke:#000032"/></a><text x="680" y="50">label</text><text x="680" y="90">label</text><text x="60" y="150">label</text><text x="100" y="150">label</text><text x="140" y="150">label</text><text x="180" y="150">label</text><text x="220" y="150">label</text><text x="260" y="150">label</text><text x="300" y="150">label</text><text x="340" y="150">label</text><text x="380" y="150">label</text><text x="420" y="150">label</text><text x="460" y="150">label</text><text x="500" y="150">label</text><text x="540" y="150">label</text><text x="580" y="150">label</text><text x="620" y="150">label</text></svg>