<?xml version="1.0" encoding="UTF-8" standalone="no"?><!DOCTYPE svg PUBLIC "-//W3C//DTD SVG 1.1//EN" "http://www.w3.org/Graphics/SVG/1.1/DTD/svg11.dtd"><svg version="1.1" xmlns="http://www.w3.org/2000/svg" xmlns:xlink="http://www.w3.org/1999/xlink"><text x="0" y="20" dominant-baseline="hanging">label</text><text x="0" y="60" dominant-baseline="hanging">label</text><text x="30" y="0" dominant-baseline="hanging">label</text><text x="70" y="0" dominant-baseline="hanging">label</text><text x="110" y="0" dominant-baseline="hanging">label</text><text x="150" y="0" dominant-baseline="hanging">label</text><text x="190" y="0" dominant-baseline="hanging">label</text><text x="230" y="0" dominant-baseline="hanging">label</text><text x="270" y="0" dominant-baseline="hanging">label</text><text x="310" y="0" dominant-baseline="hanging">label</text><text x="350" y="0" dominant-baseline="hanging">label</text><text x="390" y="0" dominant-baseline="hanging">label</text><text x="430" y="0" dominant-baseline="hanging">label</text><text x="470" y="0" dominant-baseline="hanging">label</text><text x="510" y="0" dominant-baseline="hanging">label</text><text x="550" y="0" dominant-baseline="hanging">label</text><text x="590" y="0" dominant-baseline="hanging">label</text><a xlink:href="https://tglman.com" xlink:title="Tglman.com"><rect x="30" y="20" rx="3" ry="3" width="15" height="15" style="fill:#000064;stroke-width:1;stroke:#000032"/></a><a xlink:href="https://tglman.com" xlink:title="Tglman.com"><rect x="50" y="20" rx="3" ry="3" width="15" height="15" style="fill:#00006e;stroke-width:1;stroke:#000032"/></a><a xlink:href="https://tglman.com" xlink:title="Tglman.com"><rect x="70" y="20" rx="3" ry="3" width="15" height="15" style="fill:#000078;stroke-width:1;stroke:#000032"/></a><a xlink:href="https://tglman.com" xlink:title="Tglman.com"><rect x="90" y="20" rx="3" ry="3" width="15" height="15" style="fill:#000082;stroke-width:1;stroke:#000032"/></a><a xlink:href="https://tglman.com" xlink:title="Tglman.com"><rect x="110" y="20" rx="3" ry="3" width="15" height="15" style="fill:#00008c;stroke-width:1;stroke:#000032"/></a><a xlink:href="https://tglman.com" xlink:title="Tglman.com"><rect x="130" y="20" rx="3" ry="3" width="15" height="15" style="fill:#000096;stroke-width:1;stroke:#000032"/></a><a xlink:href="https://tglman.com" xlink:title="Tglman.com"><rect x="150" y="20" rx="3" ry="3" width="15" height="15" style="fill:#0000a0;stroke-width:1;stroke:#000032"/></a><a xlink:href="https://tglman.com" xlink:title="Tglman.com"><rect x="170" y="20" rx="3" ry="3" width="15" height="15" style="fill:#0000aa;stroke-width:1;stroke:#000032"/></a><a xlink:href="https://tglman.com" xlink:title="Tglman.com"><rect x="190" y="20" rx="3" ry="3" width="15" height="15" style="fill:#0000b4;stroke-width:1;stroke:#000032"/></a><a xlink:href="https://tglman.com" xlink:title="Tglman.com"><rect x="210" y="20" rx="3" ry="3" width="15" height="15" style="fill:#0000be;stroke-width:1;stroke:#000032"/></a><a xlink:href="https://tglman.com" xlink:title="Tglman.com"><rect x="230" y="20" rx="3" ry="3" width="15" height="15" style="fill:#0000c8;stroke-width:1;stroke:#000032"/></a><a xlink:href="https://tglman.com" xlink:title="Tglman.com"><rect x="250" y="20" rx="3" ry="3" width="15" height="15" style="fill:#0000d2;stroke-width:1;stroke:#000032"/></a><a xlink:href="https://tglman.com" xlink:title="Tglman.com"><rect x="270" y="20" rx="3" ry="3" width="15" height="15" style="fill:#0000dc;stroke-width:1;stroke:#000032"/></a><a xlink:href="https://tglman.com" xlink:title="Tglman.com"><rect x="290" y="20" rx="3" ry="3" width="15" height="15" style="fill:#0000e6;stroke-width:1;stroke:#000032"/></a><a xlink:href="https://tglman.com" xlink:title="Tglman.com"><rect x="310" y="20" rx="3" ry="3" width="15" height="15" style="fill:#0000f0;stroke-width:1;stroke:#000032"/></a><a xlink:href="https://tglman.com" xlink:title="Tglman.com"><rect x="330" y="20" rx="3" ry="3" width="15" height="15" style="fill:#0000fa;stroke-width:1;stroke:#000032"/></a><a xlink:href="https://tglman.com" xlink:title="Tglman.com"><rect x="350" y="20" rx="3" ry="3" width="15" height="15" style="fill:#0000ff;stroke-width:1;stroke:#000032"/></a><a xlink:href="https://tglman.com" xlink:title="Tglman.com"><rect x="370" y="20" rx="3" ry="3" width="15" height="15" style="fill:#0000ff;stroke-width:1;stroke:#000032"/></a><a xlink:href="https://tglman.com" xlink:title="Tglman.com"><rect x="390" y="20" rx="3" ry="3" width="15" height="15" style="fill:#0000ff;stroke-width:1;stroke:#000032"/></a><a xlink:href="https://tglman.com" xlink:title="Tglman.com"><rect x="410" y="20" rx="3" ry="3" width="15" height="15" style="fill:#0000ff;stroke-width:1;stroke:#000032"/></a><a xlink:href="https://tglman.com" xlink:title="Tglman.com"><rect x="430" y="20" rx="3" ry="3" width="15" height="15" style="fill:#0000ff;stroke-width:1;stroke:#000032"/></a><a xlink:href="https://tglman.com" xlink:title="Tglman.com"><rect x="450" y="20" rx="3" ry="3" width="15" height="15" style="fill:#0000ff;stroke-width:1;stroke:#000032"/></a><a xlink:href="https://tglman.com" xlink:title="Tglman.com"><rect x="470" y="20" rx="3" ry="3" width="15" height="15" style="fill:#0000ff;stroke-width:1;stroke:#000032"/></a><a xlink:href="https://tglman.com" xlink:title="Tglman.com"><rect x="490" y="20" rx="3" ry="3" width="15" height="15" style="fill:#0000ff;stroke-width:1;stroke:#000032"/></a><a xlink:href="https://tglman.com" xlink:title="Tglman.com"><rect x="510" y="20" rx="3" ry="3" width="15" height="15" style="fill:#0000ff;stroke-width:1;stroke:#000032"/></a><a xlink:href="https://tglman.com" xlink:title="Tglman.com"><rect x="530" y="20" rx="3" ry="3" width="15" height="15" style="fill:#0000ff;stroke-width:1;stroke:#000032"/></a><a xlink:href="https://tglman.com" xlink:title="Tglman.com"><rect x="550" y="20" rx="3" ry="3" width="15" height="15" style="fill:#0000ff;stroke-width:1;stroke:#000032"/></a><a xlink:href="https://tglman.com" xlink:title="Tglman.com"><rect x="570" y="20" rx="3" ry="3" width="15" height="15" style="fill:#0000ff;stroke-width:1;stroke:#000032"/></a><a xlink:href="https://tglman.com" xlink:title="Tglman.com"><rect x="590" y="20" rx="3" ry="3" width="15" height="15" style="fill:#0000ff;stroke-width:1;stroke:#000032"/></a><a xlink:href="https://tglman.com" xlink:title="Tglman.com"><rect x="610" y="20" rx="3" ry="3" width="15" height="15" style="fill:#0000ff;stroke-width:1;stroke:#000032"/></a><a xlink:href="https://tglman.com" xlink:title="Tglman.com"><rect x="30" y="40" rx="3" ry="3" width="15" height="15" style="fill:#00006e;stroke-width:1;stroke:#000032"/></a><a xlink:href="https://tglman.com" xlink:title="Tglman.com"><rect x="50" y="40" rx="3" ry="3" width="15" height="15" style="fill:#000078;stroke-width:1;stroke:#000032"/></a><a xlink:href="https://tglman.com" xlink:title="Tglman.com"><rect x="70" y="40" rx="3" ry="3" width="15" height="15" style="fill:#000082;stroke-width:1;stroke:#000032"/></a><a xlink:href="https://tglman.com" xlink:title="Tglman.com"><rect x="90" y="40" rx="3" ry="3" width="15" height="15" style="fill:#00008c;stroke-width:1;stroke:#000032"/></a><a xlink:href="https://tglman.com" xlink:title="Tglman.com"><rect x="110" y="40" rx="3" ry="3" width="15" height="15" style="fill:#000096;stroke-width:1;stroke:#000032"/></a><a xlink:href="https://tglman.com" xlink:title="Tglman.com"><rect x="130" y="40" rx="3" ry="3" width="15" height="15" style="fill:#0000a0;stroke-width:1;stroke:#000032"/></a><a xlink:href="https://tglman.com" xlink:title="Tglman.com"><rect x="150" y="40" rx="3" ry="3" width="15" height="15" style="fill:#0000aa;stroke-width:1;stroke:#000032"/></a><a xlink:href="https://tglman.com" xlink:title="Tglman.com"><rect x="170" y="40" rx="3" ry="3" width="15" height="15" style="fill:#0000b4;stroke-width:1;stroke:#000032"/></a><a xlink:href="https://tglman.com" xlink:title="Tglman.com"><rect x="190" y="40" rx="3" ry="3" width="15" height="15" style="fill:#0000be;stroke-width:1;stroke:#000032"/></a><a xlink:href="https://tglman.com" xlink:title="Tglman.com"><rect x="210" y="40" rx="3" ry="3" width="15" height="15" style="fill:#0000c8;stroke-width:1;stroke:#000032"/></a><a xlink:href="https://tglman.com" xlink:title="Tglman.com"><rect x="230" y="40" rx="3" ry="3" width="15" height="15" style="fill:#0000d2;stroke-width:1;stroke:#000032"/></a><a xlink:href="https://tglman.com" xlink:title="Tglman.com"><rect x="250" y="40" rx="3" ry="3" width="15" height="15" style="fill:#0000dc;stroke-width:1;stroke:#000032"/></a><a xlink:href="https://tglman.com" xlink:title="Tglman.com"><rect x="270" y="40" rx="3" ry="3" width="15" height="15" style="fill:#0000e6;stroke-width:1;stroke:#000032"/></a><a xlink:href="https://tglman.com" xlink:title="Tglman.com"><rect x="290" y="40" rx="3" ry="3" width="15" height="15" style="fill:#0000f0;stroke-width:1;stroke:#000032"/></a><a xlink:href="https://tglman.com" xlink:title="Tglman.com"><rect x="310" y="40" rx="3" ry="3" width="15" height="15" style="fill:#0000fa;stroke-width:1;stroke:#000032"/></a><a xlink:href="https://tglman.com" xlink:title="Tglman.com"><rect x="330" y="40" rx="3" ry="3" width="15" height="15" style="fill:#0000ff;stroke-width:1;stroke:#000032"/></a><a xlink:href="https://tglman.com" xlink:title="Tglman.com"><rect x="350" y="40" rx="3" ry="3" width="15" height="15" style="fill:#0000ff;stroke-width:1;stroke:#000032"/></a><a xlink:href="https://tglman.com" xlink:title="Tglman.com"><rect x="370" y="40" rx="3" ry="3" width="15" height="15" style="fill:#0000ff;stroke-width:1;stroke:#000032"/></a><a xlink:href="https://tglman.com" xlink:title="Tglman.com"><rect x="390" y="40" rx="3" ry="3" width="15" height="15" style="fill:#0000ff;stroke-width:1;stroke:#000032"/></a><a xlink:href="https://tglman.com" xlink:title="Tglman.com"><rect x="410" y="40" rx="3" ry="3" width="15" height="15" style="fill:#0000ff;stroke-width:1;stroke:#000032"/></a><a xlink:href="https://tglman.com" xlink:title="Tglman.com"><rect x="430" y="40" rx="3" ry="3" width="15" height="15" style="fill:#0000ff;stroke-width:1;stroke:#000032"/></a><a xlink:href="https://tglman.com" xlink:title="Tglman.com"><rect x="450" y="40" rx="3" ry="3" width="15" height="15" style="fill:#0000ff;stroke-width:1;stroke:#000032"/></a><a xlink:href="https://tglman.com" xlink:title="Tglman.com"><rect x="470" y="40" rx="3" ry="3" width="15" height="15" style="fill:#0000ff;stroke-width:1;stroke:#000032"/></a><a xlink:href="https://tglman.com" xlink:title="Tglman.com"><rect x="490" y="40" rx="3" ry="3" width="15" height="15" style="fill:#0000ff;stroke-width:1;stroke:#000032"/></a><a xlink:href="https://tglman.com" xlink:title="Tglman.com"><rect x="510" y="40" rx="3" ry="3" width="15" height="15" style="fill:#0000ff;stroke-width:1;stroke:#000032"/></a><a xlink:href="https://tglman.com" xlink:title="Tglman.com"><rect x="530" y="40" rx="3" ry="3" width="15" height="15" style="fill:#0000ff;stroke-width:1;stroke:#000032"/></a><a xlink:href="https://tglman.com" xlink:title="Tglman.com"><rect x="550" y="40" rx="3" ry="3" width="15" height="15" style="fill:#0000ff;stroke-width:1;stroke:#000032"/></a><a xlink:href="https://tglman.com" xlink:title="Tglman.com"><rect x="570" y="40" rx="3" ry="3" width="15" height="15" style="fill:#0000ff;stroke-width:1;stroke:#000032"/></a><a xlink:href="https://tglman.com" xlink:title="Tglman.com"><rect x="590" y="40" rx="3" ry="3" width="15" height="15" style="fill:#0000ff;stroke-width:1;stroke:#000032"/></a><a xlink:href="https://tglman.com" xlink:title="Tglman.com"><rect x="610" y="40" rx="3" ry="3" width="15" height="15" style="fill:#0000ff;stroke-width:1;stroke:#000032"/></a><a xlink:href="https://tglman.com" xlink:title="Tglman.com"><rect x="30" y="60" rx="3" ry="3" width="15" height="15" style="fill:#000078;stroke-width:1;stroke:#000032"/></a><a xlink:href="https://tglman.com" xlink:title="Tglman.com"><rect x="50" y="60" rx="3" ry="3" width="15" height="15" style="fill:#000082;stroke-width:1;stroke:#000032"/></a><a xlink:href="https://tglman.com" xlink:title="Tglman.com"><rect x="70" y="60" rx="3" ry="3" width="15" height="15" style="fill:#00008c;stroke-width:1;stroke:#000032"/></a><a xlink:href="https://tglman.com" xlink:title="Tglman.com"><rect x="90" y="60" rx="3" ry="3" width="15" height="15" style="fill:#000096;stroke-width:1;stroke:#000032"/></a><a xlink:href="https://tglman.com" xlink:title="Tglman.com"><rect x="110" y="60" rx="3" ry="3" width="15" height="15" style="fill:#0000a0;stroke-width:1;stroke:#000032"/></a><a xlink:href="https://tglman.com" xlink:title="Tglman.com"><rect x="130" y="60" rx="3" ry="3" width="15" height="15" style="fill:#0000aa;stroke-width:1;stroke:#000032"/></a><a xlink:href="https://tglman.com" xlink:title="Tglman.com"><rect x="150" y="60" rx="3" ry="3" width="15" height="15" style="fill:#0000b4;stroke-width:1;stroke:#000032"/></a><a xlink:href="https://tglman.com" xlink:title="Tglman.com"><rect x="170" y="60" rx="3" ry="3" width="15" height="15" style="fill:#0000be;stroke-width:1;stroke:#000032"/></a><a xlink:href="https://tglman.com" xlink:title="Tglman.com"><rect x="190" y="60" rx="3" ry="3" width="15" height="15" style="fill:#0000c8;stroke-width:1;stroke:#000032"/></a><a xlink:href="https://tglman.com" xlink:title="Tglman.com"><rect x="210" y="60" rx="3" ry="3" width="15" height="15" style="fill:#0000d2;stroke-width:1;stroke:#000032"/></a><a xlink:href="https://tglman.com" xlink:title="Tglman.com"><rect x="230" y="60" rx="3" ry="3" width="15" height="15" style="fill:#0000dc;stroke-width:1;stroke:#000032"/></a><a xlink:href="https://tglman.com" xlink:title="Tglman.com"><rect x="250" y="60" rx="3" ry="3" width="15" height="15" style="fill:#0000e6;stroke-width:1;stroke:#000032"/></a><a xlink:href="https://tglman.com" xlink:title="Tglman.com"><rect x="270" y="60" rx="3" ry="3" width="15" height="15" style="fill:#0000f0;stroke-width:1;stroke:#000032"/></a><a xlink:href="https://tglman.com" xlink:title="Tglman.com"><rect x="290" y="60" rx="3" ry="3" width="15" height="15" style="fill:#0000fa;stroke-width:1;stroke:#000032"/></a><a xlink:href="https://tglman.com" xlink:title="Tglman.com"><rect x="310" y="60" rx="3" ry="3" width="15" height="15" style="fill:#0000ff;stroke-width:1;stroke:#000032"/></a><a xlink:href="https://tglman.com" xlink:title="Tglman.com"><rect x="330" y="60" rx="3" ry="3" width="15" height="15" style="fill:#0000ff;stroke-width:1;stroke:#000032"/></a><a xlink:href="https://tglman.com" xlink:title="Tglman.com"><rect x="350" y="60" rx="3" ry="3" width="15" height="15" style="fill:#0000ff;stroke-width:1;stroke:#000032"/></a><a xlink:href="https://tglman.com" xlink:title="Tglman.com"><rect x="370" y="60" rx="3" ry="3" width="15" height="15" style="fill:#0000ff;stroke-width:1;stroke:#000032"/></a><a xlink:href="https://tglman.com" xlink:title="Tglman.com"><rect x="390" y="60" rx="3" ry="3" width="15" height="15" style="fill:#0000ff;stroke-width:1;stroke:#000032"/></a><a xlink:href="https://tglman.com" xlink:title="Tglman.com"><rect x="410" y="60" rx="3" ry="3" width="15" height="15" style="fill:#0000ff;stroke-width:1;stroke:#000032"/></a><a xlink:href="https://tglman.com" xlink:title="Tglman.com"><rect x="430" y="60" rx="3" ry="3" width="15" height="15" style="fill:#0000ff;stroke-width:1;stroke:#000032"/></a><a xlink:href="https://tglman.com" xlink:title="Tglman.com"><rect x="450" y="60" rx="3" ry="3" width="15" height="15" style="fill:#0000ff;stroke-width:1;stroke:#000032"/></a><a xlink:href="https://tglman.com" xlink:title="Tglman.com"><rect x="470" y="60" rx="3" ry="3" width="15" height="15" style="fill:#0000ff;stroke-width:1;stroke:#000032"/></a><a xlink:href="https://tglman.com" xlink:title="Tglman.com"><rect x="490" y="60" rx="3" ry="3" width="15" height="15" style="fill:#0000ff;stroke-width:1;stroke:#000032"/></a><a xlink:href="https://tglman.com" xlink:title="Tglman.com"><rect x="510" y="60" rx="3" ry="3" width="15" height="15" style="fill:#0000ff;stroke-width:1;stroke:#000032"/></a><a xlink:href="https://tglman.com" xlink:title="Tglman.com"><rect x="530" y="60" rx="3" ry="3" width="15" height="15" style="fill:#0000ff;stroke-width:1;stroke:#000032"/></a><a xlink:href="https://tglman.com" xlink:title="Tglman.com"><rect x="550" y="60" rx="3" ry="3" width="15" height="15" style="fill:#0000ff;stroke-width:1;stroke:#000032"/></a><a xlink:href="https://tglman.com" xlink:title="Tglman.com"><rect x="570" y="60" rx="3" ry="3" width="15" height="15" style="fill:#0000ff;stroke-width:1;stroke:#000032"/></a><a xlink:href="https://tglman.com" xlink:title="Tglman.com"><rect x="590" y="60" rx="3" ry="3" width="15" height="15" style="fill:#0000ff;stroke-width:1;stroke:#000032"/></a><a xlink:href="https://tglman.com" xlink:title="Tglman.com"><rect x="610" y="60" rx="3" ry="3" width="15" height="15" style="fill:#0000ff;stroke-width:1;stroke:#000032"/></a><a xlink:href="https://tglman.com" xlink:title="Tglman.com"><rect x="30" y="80" rx="3" ry="3" width="15" height="15" style="fill:#000082;stroke-width:1;stroke:#000032"/></a><a xlink:href="https://tglman.com" xlink:title="Tglman.com"><rect x="50" y="80" rx="3" ry="3" width="15" height="15" style="fill:#00008c;stroke-width:1;stroke:#000032"/></a><a xlink:href="https://tglman.com" xlink:title="Tglman.com"><rect x="70" y="80" rx="3" ry="3" width="15" height="15" style="fill:#000096;stroke-width:1;stroke:#000032"/></a><a xlink:href="https://tglman.com" xlink:title="Tglman.com"><rect x="90" y="80" rx="3" ry="3" width="15" height="15" style="fill:#0000a0;stroke-width:1;stroke:#000032"/></a><a xlink:href="https://tglman.com" xlink:title="Tglman.com"><rect x="110" y="80" rx="3" ry="3" width="15" height="15" style="fill:#0000aa;stroke-width:1;stroke:#000032"/></a><a xlink:href="https://tglman.com" xlink:title="Tglman.com"><rect x="130" y="80" rx="3" ry="3" width="15" height="15" style="fill:#0000b4;stroke-width:1;stroke:#000032"/></a><a xlink:href="https://tglman.com" xlink:title="Tglman.com"><rect x="150" y="80" rx="3" ry="3" width="15" height="15" style="fill:#0000be;stroke-width:1;stroke:#000032"/></a><a xlink:href="https://tglman.com" xlink:title="Tglman.com"><rect x="170" y="80" rx="3" ry="3" width="15" height="15" style="fill:#0000c8;stroke-width:1;stroke:#000032"/></a><a xlink:href="https://tglman.com" xlink:title="Tglman.com"><rect x="190" y="80" rx="3" ry="3" width="15" height="15" style="fill:#0000d2;stroke-width:1;stroke:#000032"/></a><a xlink:href="https://tglman.com" xlink:title="Tglman.com"><rect x="210" y="80" rx="3" ry="3" width="15" height="15" style="fill:#0000dc;stroke-width:1;stroke:#000032"/></a><a xlink:href="https://tglman.com" xlink:title="Tglman.com"><rect x="230" y="80" rx="3" ry="3" width="15" height="15" style="fill:#0000e6;stroke-width:1;stroke:#000032"/></a><a xlink:href="https://tglman.com" xlink:title="Tglman.com"><rect x="250" y="80" rx="3" ry="3" width="15" height="15" style="fill:#0000f0;stroke-width:1;stroke:#000032"/></a><a xlink:href="https://tglman.com" xlink:title="Tglman.com"><rect x="270" y="80" rx="3" ry="3" width="15" height="15" style="fill:#0000fa;stroke-width:1;stroke:#000032"/></a><a xlink:href="https://tglman.com" xlink:title="Tglman.com"><rect x="290" y="80" rx="3" ry="3" width="15" height="15" style="fill:#0000ff;stroke-width:1;stroke:#000032"/></a><a xlink:href="https://tglman.com" xlink:title="Tglman.com"><rect x="310" y="80" rx="3" ry="3" width="15" height="15" style="fill:#0000ff;stroke-width:1;stroke:#000032"/></a><a xlink:href="https://tglman.com" xlink:title="Tglman.com"><rect x="330" y="80" rx="3" ry="3" width="15" height="15" style="fill:#0000ff;stroke-width:1;stroke:#000032"/></a><a xlink:href="https://tglman.com" xlink:title="Tglman.com"><rect x="350" y="80" rx="3" ry="3" width="15" height="15" style="fill:#0000ff;stroke-width:1;stroke:#000032"/></a><a xlink:href="https://tglman.com" xlink:title="Tglman.com"><rect x="370" y="80" rx="3" ry="3" width="15" height="15" style="fill:#0000ff;stroke-width:1;stroke:#000032"/></a><a xlink:href="https://tglman.com" xlink:title="Tglman.com"><rect x="390" y="80" rx="3" ry="3" width="15" height="15" style="fill:#0000ff;stroke-width:1;stroke:#000032"/></a><a xlink:href="https://tglman.com" xlink:title="Tglman.com"><rect x="410" y="80" rx="3" ry="3" width="15" height="15" style="fill:#0000ff;stroke-width:1;stroke:#000032"/></a><a xlink:href="https://tglman.com" xlink:title="Tglman.com"><rect x="430" y="80" rx="3" ry="3" width="15" height="15" style="fill:#0000ff;stroke-width:1;stroke:#000032"/></a><a xlink:href="https://tglman.com" xlink:title="Tglman.com"><rect x="450" y="80" rx="3" ry="3" width="15" height="15" style="fill:#0000ff;stroke-width:1;stroke:#000032"/></a><a xlink:href="https://tglman.com" xlink:title="Tglman.com"><rect x="470" y="80" rx="3" ry="3" width="15" height="15" style="fill:#0000ff;stroke-width:1;stroke:#000032"/></a><a xlink:href="https://tglman.com" xlink:title="Tglman.com"><rect x="490" y="80" rx="3" ry="3" width="15" height="15" style="fill:#0000ff;stroke-width:1;stroke:#000032"/></a><a xlink:href="https://tglman.com" xlink:title="Tglman.com"><rect x="510" y="80" rx="3" ry="3" width="15" height="15" style="fill:#0000ff;stroke-width:1;stroke:#000032"/></a><a xlink:href="https://tglman.com" xlink:title="Tglman.com"><rect x="530" y="80" rx="3" ry="3" width="15" height="15" style="fill:#0000ff;stroke-width:1;stroke:#000032"/></a><a xlink:href="https://tglman.com" xlink:title="Tglman.com"><rect x="550" y="80" rx="3" ry="3" width="15" height="15" style="fill:#0000ff;stroke-width:1;stroke:#000032"/></a><a xlink:href="https://tglman.com" xlink:title="Tglman.com"><rect x="570" y="80" rx="3" ry="3" width="15" height="15" style="fill:#0000ff;stroke-width:1;stroke:#000032"/></a><a xlink:href="https://tglman.com" xlink:title="Tglman.com"><rect x="590" y="80" rx="3" ry="3" width="15" height="15" style="fill:#0000ff;stroke-width:1;stroke:#000032"/></a><a xlink:href="https://tglman.com" xlink:title="Tglman.com"><rect x="610" y="80" rx="3" ry="3" width="15" height="15" style="fill:#0000ff;stroke-width:1;stroke:#000032"/></a><a xlink:href="https://tglman.com" xlink:title="Tglman.com"><rect x="30" y="100" rx="3" ry="3" width="15" height="15" style="fill:#00008c;stroke-width:1;stroke:#000032"/></a><a xlink:href="https://tglman.com" xlink:title="Tglman.com"><rect x="50" y="100" rx="3" ry="3" width="15" height="15" style="fill:#000096;stroke-width:1;stroke:#000032"/></a><a xlink:href="https://tglman.com" xlink:title="Tglman.com"><rect x="70" y="100" rx="3" ry="3" width="15" height="15" style="fill:#0000a0;stroke-width:1;stroke:#000032"/></a><a xlink:href="https://tglman.com" xlink:title="Tglman.com"><rect x="90" y="100" rx="3" ry="3" width="15" height="15" style="fill:#0000aa;stroke-width:1;stroke:#000032"/></a><a xlink:href="https://tglman.com" xlink:title="Tglman.com"><rect x="110" y="100" rx="3" ry="3" width="15" height="15" style="fill:#0000b4;stroke-width:1;stroke:#000032"/></a><a xlink:href="https://tglman.com" xlink:title="Tglman.com"><rect x="130" y="100" rx="3" ry="3" width="15" height="15" style="fill:#0000be;stroke-width:1;stroke:#000032"/></a><a xlink:href="https://tglman.com" xlink:title="Tglman.com"><rect x="150" y="100" rx="3" ry="3" width="15" height="15" style="fill:#0000c8;stroke-width:1;stroke:#000032"/></a><a xlink:href="https://tglman.com" xlink:title="Tglman.com"><rect x="170" y="100" rx="3" ry="3" width="15" height="15" style="fill:#0000d2;stroke-width:1;stroke:#000032"/></a><a xlink:href="https://tglman.com" xlink:title="Tglman.com"><rect x="190" y="100" rx="3" ry="3" width="15" height="15" style="fill:#0000dc;stroke-width:1;stroke:#000032"/></a><a xlink:href="https://tglman.com" xlink:title="Tglman.com"><rect x="210" y="100" rx="3" ry="3" width="15" height="15" style="fill:#0000e6;stroke-width:1;stroke:#000032"/></a><a xlink:href="https://tglman.com" xlink:title="Tglman.com"><rect x="230" y="100" rx="3" ry="3" width="15" height="15" style="fill:#0000f0;stroke-width:1;stroke:#000032"/></a><a xlink:href="https://tglman.com" xlink:title="Tglman.com"><rect x="250" y="100" rx="3" ry="3" width="15" height="15" style="fill:#0000fa;stroke-width:1;stroke:#000032"/></a><a xlink:href="https://tglman.com" xlink:title="Tglman.com"><rect x="270" y="100" rx="3" ry="3" width="15" height="15" style="fill:#0000ff;stroke-width:1;stroke:#000032"/></a><a xlink:href="https://tglman.com" xlink:title="Tglman.com"><rect x="290" y="100" rx="3" ry="3" width="15" height="15" style="fill:#0000ff;stroke-width:1;stroke:#000032"/></a><a xlink:href="https://tglman.com" xlink:title="Tglman.com"><rect x="310" y="100" rx="3" ry="3" width="15" height="15" style="fill:#0000ff;stroke-width:1;stroke:#000032"/></a><a xlink:href="https://tglman.com" xlink:title="Tglman.com"><rect x="330" y="100" rx="3" ry="3" width="15" height="15" style="fill:#0000ff;stroke-width:1;stroke:#000032"/></a><a xlink:href="https://tglman.com" xlink:title="Tglman.com"><rect x="350" y="100" rx="3" ry="3" width="15" height="15" style="fill:#0000ff;stroke-width:1;stroke:#000032"/></a><a xlink:href="https://tglman.com" xlink:title="Tglman.com"><rect x="370" y="100" rx="3" ry="3" width="15" height="15" style="fill:#0000ff;stroke-width:1;stroke:#000032"/></a><a xlink:href="https://tglman.com" xlink:title="Tglman.com"><rect x="390" y="100" rx="3" ry="3" width="15" height="15" style="fill:#0000ff;stroke-width:1;stroke:#000032"/></a><a xlink:href="https://tglman.com" xlink:title="Tglman.com"><rect x="410" y="100" rx="3" ry="3" width="15" height="15" style="fill:#0000ff;stroke-width:1;stroke:#000032"/></a><a xlink:href="https://tglman.com" xlink:title="Tglman.com"><rect x="430" y="100" rx="3" ry="3" width="15" height="15" style="fill:#0000ff;stroke-width:1;stroke:#000032"/></a><a xlink:href="https://tglman.com" xlink:title="Tglman.com"><rect x="450" y="100" rx="3" ry="3" width="15" height="15" style="fill:#0000ff;stroke-width:1;stroke:#000032"/></a><a xlink:href="https://tglman.com" xlink:title="Tglman.com"><rect x="470" y="100" rx="3" ry="3" width="15" height="15" style="fill:#0000ff;stroke-width:1;stroke:#000032"/></a><a xlink:href="https://tglman.com" xlink:title="Tglman.com"><rect x="490" y="100" rx="3" ry="3" width="15" height="15" style="fill:#0000ff;stroke-width:1;stroke:#000032"/></a><a xlink:href="https://tglman.com" xlink:title="Tglman.com"><rect x="510" y="100" rx="3" ry="3" width="15" height="15" style="fill:#0000ff;stroke-width:1;stroke:#000032"/></a><a xlink:href="https://tglman.com" xlink:title="Tglman.com"><rect x="530" y="100" rx="3" ry="3" width="15" height="15" style="fill:#0000ff;stroke-width:1;stroke:#000032"/></a><a xlink:href="https://tglman.com" xlink:title="Tglman.com"><rect x="550" y="100" rx="3" ry="3" width="15" height="15" style="fill:#0000ff;stroke-width:1;stroke:#000032"/></a><a xlink:href="https://tglman.com" xlink:title="Tglman.com"><rect x="570" y="100" rx="3" ry="3" width="15" height="15" style="fill:#0000ff;stroke-width:1;stroke:#000032"/></a><a xlink:href="https://tglman.com" xlink:title="Tglman.com"><rect x="590" y="100" rx="3" ry="3" width="15" height="15" style="fill:#0000ff;stroke-width:1;stroke:#000032"/></a><a xlink:href="https://tglman.com" xlink:title="Tglman.com"><rect x="610" y="100" rx="3" ry="3" width="15" height="15" style="fill:#0000ff;stroke-width:1;stroke:#000032"/></a><text x="630" y="20" dominant-baseline="hanging">label</text><text x="630" y="60" dominant-baseline="hanging">label</text><text x="30" y="120" dominant-baseline="hanging">label</text><text x="70" y="120" dominant-baseline="hanging">label</text><text x="110" y="120" dominant-baseline="hanging">label</text><text x="150" y="120" dominant-baseline="hanging">label</text><text x="190" y="120" dominant-baseline="hanging">label</text><text x="230" y="120" dominant-baseline="hanging">label</text><text x="270" y="120" dominant-baseline="hanging">label</text><text x="310" y="120" dominant-baseline="hanging">label</text><text x="350" y="120" dominant-baseline="hanging">label</text><text x="390" y="120" dominant-baseline="hanging">label</text><text x="430" y="120" dominant-baseline="hanging">label</text><text x="470" y="120" dominant-baseline="hanging">label</text><text x="510" y="120" dominant-baseline="hanging">label</text><text x="550" y="120" dominant-baseline="hanging">label</text><text x="590" y="120" dominant-baseline="hanging">label</text></svg>