<?xml version="1.0" encoding="UTF-8" standalone="no"?><!DOCTYPE svg PUBLIC "-//W3C//DTD SVG 1.1//EN" "http://www.w3.org/Graphics/SVG/1.1/DTD/svg11.dtd"><svg version="1.1" xmlns="http://www.w3.org/2000/svg" xmlns:xlink="http://www.w3.org/1999/xlink"><a xlink:href="https://tglman.com" xlink:title="Tglman.com"><rect x="0" y="0" rx="3" ry="3" width="15" height="15" style="fill:#000064;stroke-width:1;stroke:#000032"/></a><a xlink:href="https://tglman.com" xlink:title="Tglman.com"><rect x="0" y="20" rx="3" ry="3" width="15" height="15" style="fill:#00006e;stroke-width:1;stroke:#000032"/></a><a xlink:href="https://tglman.com" xlink:title="Tglman.com"><rect x="0" y="40" rx="3" ry="3" width="15" height="15" style="fill:#000078;stroke-width:1;stroke:#000032"/></a><a xlink:href="https://tglman.com" xlink:title="Tglman.com"><rect x="0" y="60" rx="3" ry="3" width="15" height="15" style="fill:#000082;stroke-width:1;stroke:#000032"/></a><a xlink:href="https://tglman.com" xlink:title="Tglman.com"><rect x="0" y="80" rx="3" ry="3" width="15" height="15" style="fill:#00008c;stroke-width:1;stroke:#000032"/></a><a xlink:href="https://tglman.com" xlink:title="Tglman.com"><rect x="0" y="100" rx="3" ry="3" width="15" height="15" style="fill:#000096;stroke-width:1;stroke:#000032"/></a><a xlink:href="https://tglman.com" xlink:title="Tglman.com"><rect x="0" y="120" rx="3" ry="3" width="15" height="15" style="fill:#0000a0;stroke-width:1;stroke:#000032"/></a><a xlink:href="https://tglman.com" xlink:title="Tglman.com"><rect x="0" y="140" rx="3" ry="3" width="15" height="15" style="fill:#0000aa;stroke-width:1;stroke:#000032"/></a><a xlink:href="https://tglman.com" xlink:title="Tglman.com"><rect x="0" y="160" rx="3" ry="3" width="15" height="15" style="fill:#0000b4;stroke-width:1;stroke:#000032"/></a><a xlink:href="https://tglman.com" xlink:title="Tglman.com"><rect x="0" y="180" rx="3" ry="3" width="15" height="15" style="fill:#0000be;stroke-width:1;stroke:#000032"/></a><a xlink:href="https://tglman.com" xlink:title="Tglman.com"><rect x="0" y="200" rx="3" ry="3" width="15" height="15" style="fill:#0000c8;stroke-width:1;stroke:#000032"/></a><a xlink:href="https://tglman.com" xlink:title="Tglman.com"><rect x="0" y="220" rx="3" ry="3" width="15" height="15" style="fill:#0000d2;stroke-width:1;stroke:#000032"/></a><a xlink:href="https://tglman.com" xlink:title="Tglman.com"><rect x="0" y="240" rx="3" ry="3" width="15" height="15" style="fill:#0000dc;stroke-width:1;stroke:#000032"/></a><a xlink:href="https://tglman.com" xlink:title="Tglman.com"><rect x="0" y="260" rx="3" ry="3" width="15" height="15" style="fill:#0000e6;stroke-width:1;stroke:#000032"/></a><a xlink:href="https://tglman.com" xlink:title="Tglman.com"><rect x="0" y="280" rx="3" ry="3" width="15" height="15" style="fill:#0000f0;stroke-width:1;stroke:#000032"/></a><a xlink:href="https://tglman.com" xlink:title="Tglman.com"><rect x="0" y="300" rx="3" ry="3" width="15" height="15" style="fill:#0000fa;stroke-width:1;stroke:#000032"/></a><a xlink:href="https://tglman.com" xlink:title="Tglman.com"><rect x="0" y="320" rx="3" ry="3" width="15" height="15" style="fill:#0000ff;stroke-width:1;stroke:#000032"/></a><a xlink:href="https://tglman.com" xlink:title="Tglman.com"><rect x="0" y="340" rx="3" ry="3" width="15" height="15" style="fill:#0000ff;stroke-width:1;stroke:#000032"/></a><a xlink:href="https://tglman.com" xlink:title="Tglman.com"><rect x="0" y="360" rx="3" ry="3" width="15" height="15" style="fill:#0000ff;stroke-width:1;stroke:#000032"/></a><a xlink:href="https://tglman.com" xlink:title="Tglman.com"><rect x="0" y="380" rx="3" ry="3" width="15" height="15" style="fill:#0000ff;stroke-width:1;stroke:#000032"/></a><a xlink:href="https://tglman.com" xlink:title="Tglman.com"><rect x="0" y="400" rx="3" ry="3" width="15" height="15" style="fill:#0000ff;stroke-width:1;stroke:#000032"/></a><a xlink:href="https://tglman.com" xlink:title="Tglman.com"><rect x="0" y="420" rx="3" ry="3" width="15" height="15" style="fill:#0000ff;stroke-width:1;stroke:#000032"/></a><a xlink:href="https://tglman.com" xlink:title="Tglman.com"><rect x="0" y="440" rx="3" ry="3" width="15" height="15" style="fill:#0000ff;stroke-width:1;stroke:#000032"/></a><a xlink:href="https://tglman.com" xlink:title="Tglman.com"><rect x="0" y="460" rx="3" ry="3" width="15" height="15" style="fill:#0000ff;stroke-width:1;stroke:#000032"/></a><a xlink:href="https://tglman.com" xlink:title="Tglman.com"><rect x="0" y="480" rx="3" ry="3" width="15" height="15" style="fill:#0000ff;stroke-width:1;stroke:#000032"/></a><a xlink:href="https://tglman.com" xlink:title="Tglman.com"><rect x="0" y="500" rx="3" ry="3" width="15" height="15" style="fill:#0000ff;stroke-width:1;stroke:#000032"/></a><a xlink:href="https://tglman.com" xlink:title="Tglman.com"><rect x="0" y="520" rx="3" ry="3" width="15" height="15" style="fill:#0000ff;stroke-width:1;stroke:#000032"/></a><a xlink:href="https://tglman.com" xlink:title="Tglman.com"><rect x="0" y="540" rx="3" ry="3" width="15" height="15" style="fill:#0000ff;stroke-width:1;stroke:#000032"/></a><a xlink:href="https://tglman.com" xlink:title="Tglman.com"><rect x="0" y="560" rx="3" ry="3" width="15" height="15" style="fill:#0000ff;stroke-width:1;stroke:#000032"/></a><a xlink:href="https://tglman.com" xlink:title="Tglman.com"><rect x="0" y="580" rx="3" ry="3" width="15" height="15" style="fill:#0000ff;stroke-width:1;stroke:#000032"/></a><a xlink:href="https://tglman.com" xlink:title="Tglman.com"><rect x="20" y="0" rx="3" ry="3" width="15" height="15" style="fill:#00006e;stroke-width:1;stroke:#000032"/></a><a xlink:href="https://tglman.com" xlink:title="Tglman.com"><rect x="20" y="20" rx="3" ry="3" width="15" height="15" style="fill:#000078;stroke-width:1;stroke:#000032"/></a><a xlink:href="https://tglman.com" xlink:title="Tglman.com"><rect x="20" y="40" rx="3" ry="3" width="15" height="15" style="fill:#000082;stroke-width:1;stroke:#000032"/></a><a xlink:href="https://tglman.com" xlink:title="Tglman.com"><rect x="20" y="60" rx="3" ry="3" width="15" height="15" style="fill:#00008c;stroke-width:1;stroke:#000032"/></a><a xlink:href="https://tglman.com" xlink:title="Tglman.com"><rect x="20" y="80" rx="3" ry="3" width="15" height="15" style="fill:#000096;stroke-width:1;stroke:#000032"/></a><a xlink:href="https://tglman.com" xlink:title="Tglman.com"><rect x="20" y="100" rx="3" ry="3" width="15" height="15" style="fill:#0000a0;stroke-width:1;stroke:#000032"/></a><a xlink:href="https://tglman.com" xlink:title="Tglman.com"><rect x="20" y="120" rx="3" ry="3" width="15" height="15" style="fill:#0000aa;stroke-width:1;stroke:#000032"/></a><a xlink:href="https://tglman.com" xlink:title="Tglman.com"><rect x="20" y="140" rx="3" ry="3" width="15" height="15" style="fill:#0000b4;stroke-width:1;stroke:#000032"/></a><a xlink:href="https://tglman.com" xlink:title="Tglman.com"><rect x="20" y="160" rx="3" ry="3" width="15" height="15" style="fill:#0000be;stroke-width:1;stroke:#000032"/></a><a xlink:href="https://tglman.com" xlink:title="Tglman.com"><rect x="20" y="180" rx="3" ry="3" width="15" height="15" style="fill:#0000c8;stroke-width:1;stroke:#000032"/></a><a xlink:href="https://tglman.com" xlink:title="Tglman.com"><rect x="20" y="200" rx="3" ry="3" width="15" height="15" style="fill:#0000d2;stroke-width:1;stroke:#000032"/></a><a xlink:href="https://tglman.com" xlink:title="Tglman.com"><rect x="20" y="220" rx="3" ry="3" width="15" height="15" style="fill:#0000dc;stroke-width:1;stroke:#000032"/></a><a xlink:href="https://tglman.com" xlink:title="Tglman.com"><rect x="20" y="240" rx="3" ry="3" width="15" height="15" style="fill:#0000e6;stroke-width:1;stroke:#000032"/></a><a xlink:href="https://tglman.com" xlink:title="Tglman.com"><rect x="20" y="260" rx="3" ry="3" width="15" height="15" style="fill:#0000f0;stroke-width:1;stroke:#000032"/></a><a xlink:href="https://tglman.com" xlink:title="Tglman.com"><rect x="20" y="280" rx="3" ry="3" width="15" height="15" style="fill:#0000fa;stroke-width:1;stroke:#000032"/></a><a xlink:href="https://tglman.com" xlink:title="Tglman.com"><rect x="20" y="300" rx="3" ry="3" width="15" height="15" style="fill:#0000ff;stroke-width:1;stroke:#000032"/></a><a xlink:href="https://tglman.com" xlink:title="Tglman.com"><rect x="20" y="320" rx="3" ry="3" width="15" height="15" style="fill:#0000ff;stroke-width:1;stroke:#000032"/></a><a xlink:href="https://tglman.com" xlink:title="Tglman.com"><rect x="20" y="340" rx="3" ry="3" width="15" height="15" style="fill:#0000ff;stroke-width:1;stroke:#000032"/></a><a xlink:href="https://tglman.com" xlink:title="Tglman.com"><rect x="20" y="360" rx="3" ry="3" width="15" height="15" style="fill:#0000ff;stroke-width:1;stroke:#000032"/></a><a xlink:href="https://tglman.com" xlink:title="Tglman.com"><rect x="20" y="380" rx="3" ry="3" width="15" height="15" style="fill:#0000ff;stroke-width:1;stroke:#000032"/></a><a xlink:href="https://tglman.com" xlink:title="Tglman.com"><rect x="20" y="400" rx="3" ry="3" width="15" height="15" style="fill:#0000ff;stroke-width:1;stroke:#000032"/></a><a xlink:href="https://tglman.com" xlink:title="Tglman.com"><rect x="20" y="420" rx="3" ry="3" width="15" height="15" style="fill:#0000ff;stroke-width:1;stroke:#000032"/></a><a xlink:href="https://tglman.com" xlink:title="Tglman.com"><rect x="20" y="440" rx="3" ry="3" width="15" height="15" style="fill:#0000ff;stroke-width:1;stroke:#000032"/></a><a xlink:href="https://tglman.com" xlink:title="Tglman.com"><rect x="20" y="460" rx="3" ry="3" width="15" height="15" style="fill:#0000ff;stroke-width:1;stroke:#000032"/></a><a xlink:href="https://tglman.com" xlink:title="Tglman.com"><rect x="20" y="480" rx="3" ry="3" width="15" height="15" style="fill:#0000ff;stroke-width:1;stroke:#000032"/></a><a xlink:href="https://tglman.com" xlink:title="Tglman.com"><rect x="20" y="500" rx="3" ry="3" width="15" height="15" style="fill:#0000ff;stroke-width:1;stroke:#000032"/></a><a xlink:href="https://tglman.com" xlink:title="Tglman.com"><rect x="20" y="520" rx="3" ry="3" width="15" height="15" style="fill:#0000ff;stroke-width:1;stroke:#000032"/></a><a xlink:href="https://tglman.com" xlink:title="Tglman.com"><rect x="20" y="540" rx="3" ry="3" width="15" height="15" style="fill:#0000ff;stroke-width:1;stroke:#000032"/></a><a xlink:href="https://tglman.com" xlink:title="Tglman.com"><rect x="20" y="560" rx="3" ry="3" width="15" height="15" style="fill:#0000ff;stroke-width:1;stroke:#000032"/></a><a xlink:href="https://tglman.com" xlink:title="Tglman.com"><rect x="20" y="580" rx="3" ry="3" width="15" height="15" style="fill:#0000ff;stroke-width:1;stroke:#000032"/></a><a xlink:href="https://tglman.com" xlink:title="Tglman.com"><rect x="40" y="0" rx="3" ry="3" width="15" height="15" style="fill:#000078;stroke-width:1;stroke:#000032"/></a><a xlink:href="https://tglman.com" xlink:title="Tglman.com"><rect x="40" y="20" rx="3" ry="3" width="15" height="15" style="fill:#000082;stroke-width:1;stroke:#000032"/></a><a xlink:href="https://tglman.com" xlink:title="Tglman.com"><rect x="40" y="40" rx="3" ry="3" width="15" height="15" style="fill:#00008c;stroke-width:1;stroke:#000032"/></a><a xlink:href="https://tglman.com" xlink:title="Tglman.com"><rect x="40" y="60" rx="3" ry="3" width="15" height="15" style="fill:#000096;stroke-width:1;stroke:#000032"/></a><a xlink:href="https://tglman.com" xlink:title="Tglman.com"><rect x="40" y="80" rx="3" ry="3" width="15" height="15" style="fill:#0000a0;stroke-width:1;stroke:#000032"/></a><a xlink:href="https://tglman.com" xlink:title="Tglman.com"><rect x="40" y="100" rx="3" ry="3" width="15" height="15" style="fill:#0000aa;stroke-width:1;stroke:#000032"/></a><a xlink:href="https://tglman.com" xlink:title="Tglman.com"><rect x="40" y="120" rx="3" ry="3" width="15" height="15" style="fill:#0000b4;stroke-width:1;stroke:#000032"/></a><a xlink:href="https://tglman.com" xlink:title="Tglman.com"><rect x="40" y="140" rx="3" ry="3" width="15" height="15" style="fill:#0000be;stroke-width:1;stroke:#000032"/></a><a xlink:href="https://tglman.com" xlink:title="Tglman.com"><rect x="40" y="160" rx="3" ry="3" width="15" height="15" style="fill:#0000c8;stroke-width:1;stroke:#000032"/></a><a xlink:href="https://tglman.com" xlink:title="Tglman.com"><rect x="40" y="180" rx="3" ry="3" width="15" height="15" style="fill:#0000d2;stroke-width:1;stroke:#000032"/></a><a xlink:href="https://tglman.com" xlink:title="Tglman.com"><rect x="40" y="200" rx="3" ry="3" width="15" height="15" style="fill:#0000dc;stroke-width:1;stroke:#000032"/></a><a xlink:href="https://tglman.com" xlink:title="Tglman.com"><rect x="40" y="220" rx="3" ry="3" width="15" height="15" style="fill:#0000e6;stroke-width:1;stroke:#000032"/></a><a xlink:href="https://tglman.com" xlink:title="Tglman.com"><rect x="40" y="240" rx="3" ry="3" width="15" height="15" style="fill:#0000f0;stroke-width:1;stroke:#000032"/></a><a xlink:href="https://tglman.com" xlink:title="Tglman.com"><rect x="40" y="260" rx="3" ry="3" width="15" height="15" style="fill:#0000fa;stroke-width:1;stroke:#000032"/></a><a xlink:href="https://tglman.com" xlink:title="Tglman.com"><rect x="40" y="280" rx="3" ry="3" width="15" height="15" style="fill:#0000ff;stroke-width:1;stroke:#000032"/></a><a xlink:href="https://tglman.com" xlink:title="Tglman.com"><rect x="40" y="300" rx="3" ry="3" width="15" height="15" style="fill:#0000ff;stroke-width:1;stroke:#000032"/></a><a xlink:href="https://tglman.com" xlink:title="Tglman.com"><rect x="40" y="320" rx="3" ry="3" width="15" height="15" style="fill:#0000ff;stroke-width:1;stroke:#000032"/></a><a xlink:href="https://tglman.com" xlink:title="Tglman.com"><rect x="40" y="340" rx="3" ry="3" width="15" height="15" style="fill:#0000ff;stroke-width:1;stroke:#000032"/></a><a xlink:href="https://tglman.com" xlink:title="Tglman.com"><rect x="40" y="360" rx="3" ry="3" width="15" height="15" style="fill:#0000ff;stroke-width:1;stroke:#000032"/></a><a xlink:href="https://tglman.com" xlink:title="Tglman.com"><rect x="40" y="380" rx="3" ry="3" width="15" height="15" style="fill:#0000ff;stroke-width:1;stroke:#000032"/></a><a xlink:href="https://tglman.com" xlink:title="Tglman.com"><rect x="40" y="400" rx="3" ry="3" width="15" height="15" style="fill:#0000ff;stroke-width:1;stroke:#000032"/></a><a xlink:href="https://tglman.com" xlink:title="Tglman.com"><rect x="40" y="420" rx="3" ry="3" width="15" height="15" style="fill:#0000ff;stroke-width:1;stroke:#000032"/></a><a xlink:href="https://tglman.com" xlink:title="Tglman.com"><rect x="40" y="440" rx="3" ry="3" width="15" height="15" style="fill:#0000ff;stroke-width:1;stroke:#000032"/></a><a xlink:href="https://tglman.com" xlink:title="Tglman.com"><rect x="40" y="460" rx="3" ry="3" width="15" height="15" style="fill:#0000ff;stroke-width:1;stroke:#000032"/></a><a xlink:href="https://tglman.com" xlink:title="Tglman.com"><rect x="40" y="480" rx="3" ry="3" width="15" height="15" style="fill:#0000ff;stroke-width:1;stroke:#000032"/></a><a xlink:href="https://tglman.com" xlink:title="Tglman.com"><rect x="40" y="500" rx="3" ry="3" width="15" height="15" style="fill:#0000ff;stroke-width:1;stroke:#000032"/></a><a xlink:href="https://tglman.com" xlink:title="Tglman.com"><rect x="40" y="520" rx="3" ry="3" width="15" height="15" style="fill:#0000ff;stroke-width:1;stroke:#000032"/></a><a xlink:href="https://tglman.com" xlink:title="Tglman.com"><rect x="40" y="540" rx="3" ry="3" width="15" height="15" style="fill:#0000ff;stroke-width:1;stroke:#000032"/></a><a xlink:href="https://tglman.com" xlink:title="Tglman.com"><rect x="40" y="560" rx="3" ry="3" width="15" height="15" style="fill:#0000ff;stroke-width:1;stroke:#000032"/></a><a xlink:href="https://tglman.com" xlink:title="Tglman.com"><rect x="40" y="580" rx="3" ry="3" width="15" height="15" style="fill:#0000ff;stroke-width:1;stroke:#000032"/></a><a xlink:href="https://tglman.com" xlink:title="Tglman.com"><rect x="60" y="0" rx="3" ry="3" width="15" height="15" style="fill:#000082;stroke-width:1;stroke:#000032"/></a><a xlink:href="https://tglman.com" xlink:title="Tglman.com"><rect x="60" y="20" rx="3" ry="3" width="15" height="15" style="fill:#00008c;stroke-width:1;stroke:#000032"/></a><a xlink:href="https://tglman.com" xlink:title="Tglman.com"><rect x="60" y="40" rx="3" ry="3" width="15" height="15" style="fill:#000096;stroke-width:1;stroke:#000032"/></a><a xlink:href="https://tglman.com" xlink:title="Tglman.com"><rect x="60" y="60" rx="3" ry="3" width="15" height="15" style="fill:#0000a0;stroke-width:1;stroke:#000032"/></a><a xlink:href="https://tglman.com" xlink:title="Tglman.com"><rect x="60" y="80" rx="3" ry="3" width="15" height="15" style="fill:#0000aa;stroke-width:1;stroke:#000032"/></a><a xlink:href="https://tglman.com" xlink:title="Tglman.com"><rect x="60" y="100" rx="3" ry="3" width="15" height="15" style="fill:#0000b4;stroke-width:1;stroke:#000032"/></a><a xlink:href="https://tglman.com" xlink:title="Tglman.com"><rect x="60" y="120" rx="3" ry="3" width="15" height="15" style="fill:#0000be;stroke-width:1;stroke:#000032"/></a><a xlink:href="https://tglman.com" xlink:title="Tglman.com"><rect x="60" y="140" rx="3" ry="3" width="15" height="15" style="fill:#0000c8;stroke-width:1;stroke:#000032"/></a><a xlink:href="https://tglman.com" xlink:title="Tglman.com"><rect x="60" y="160" rx="3" ry="3" width="15" height="15" style="fill:#0000d2;stroke-width:1;stroke:#000032"/></a><a xlink:href="https://tglman.com" xlink:title="Tglman.com"><rect x="60" y="180" rx="3" ry="3" width="15" height="15" style="fill:#0000dc;stroke-width:1;stroke:#000032"/></a><a xlink:href="https://tglman.com" xlink:title="Tglman.com"><rect x="60" y="200" rx="3" ry="3" width="15" height="15" style="fill:#0000e6;stroke-width:1;stroke:#000032"/></a><a xlink:href="https://tglman.com" xlink:title="Tglman.com"><rect x="60" y="220" rx="3" ry="3" width="15" height="15" style="fill:#0000f0;stroke-width:1;stroke:#000032"/></a><a xlink:href="https://tglman.com" xlink:title="Tglman.com"><rect x="60" y="240" rx="3" ry="3" width="15" height="15" style="fill:#0000fa;stroke-width:1;stroke:#000032"/></a><a xlink:href="https://tglman.com" xlink:title="Tglman.com"><rect x="60" y="260" rx="3" ry="3" width="15" height="15" style="fill:#0000ff;stroke-width:1;stroke:#000032"/></a><a xlink:href="https://tglman.com" xlink:title="Tglman.com"><rect x="60" y="280" rx="3" ry="3" width="15" height="15" style="fill:#0000ff;stroke-width:1;stroke:#000032"/></a><a xlink:href="https://tglman.com" xlink:title="Tglman.com"><rect x="60" y="300" rx="3" ry="3" width="15" height="15" style="fill:#0000ff;stroke-width:1;stroke:#000032"/></a><a xlink:href="https://tglman.com" xlink:title="Tglman.com"><rect x="60" y="320" rx="3" ry="3" width="15" height="15" style="fill:#0000ff;stroke-width:1;stroke:#000032"/></a><a xlink:href="https://tglman.com" xlink:title="Tglman.com"><rect x="60" y="340" rx="3" ry="3" width="15" height="15" style="fill:#0000ff;stroke-width:1;stroke:#000032"/></a><a xlink:href="https://tglman.com" xlink:title="Tglman.com"><rect x="60" y="360" rx="3" ry="3" width="15" height="15" style="fill:#0000ff;stroke-width:1;stroke:#000032"/></a><a xlink:href="https://tglman.com" xlink:title="Tglman.com"><rect x="60" y="380" rx="3" ry="3" width="15" height="15" style="fill:#0000ff;stroke-width:1;stroke:#000032"/></a><a xlink:href="https://tglman.com" xlink:title="Tglman.com"><rect x="60" y="400" rx="3" ry="3" width="15" height="15" style="fill:#0000ff;stroke-width:1;stroke:#000032"/></a><a xlink:href="https://tglman.com" xlink:title="Tglman.com"><rect x="60" y="420" rx="3" ry="3" width="15" height="15" style="fill:#0000ff;stroke-width:1;stroke:#000032"/></a><a xlink:href="https://tglman.com" xlink:title="Tglman.com"><rect x="60" y="440" rx="3" ry="3" width="15" height="15" style="fill:#0000ff;stroke-width:1;stroke:#000032"/></a><a xlink:href="https://tglman.com" xlink:title="Tglman.com"><rect x="60" y="460" rx="3" ry="3" width="15" height="15" style="fill:#0000ff;stroke-width:1;stroke:#000032"/></a><a xlink:href="https://tglman.com" xlink:title="Tglman.com"><rect x="60" y="480" rx="3" ry="3" width="15" height="15" style="fill:#0000ff;stroke-width:1;stroke:#000032"/></a><a xlink:href="https://tglman.com" xlink:title="Tglman.com"><rect x="60" y="500" rx="3" ry="3" width="15" height="15" style="fill:#0000ff;stroke-width:1;stroke:#000032"/></a><a xlink:href="https://tglman.com" xlink:title="Tglman.com"><rect x="60" y="520" rx="3" ry="3" width="15" height="15" style="fill:#0000ff;stroke-width:1;stroke:#000032"/></a><a xlink:href="https://tglman.com" xlink:title="Tglman.com"><rect x="60" y="540" rx="3" ry="3" width="15" height="15" style="fill:#0000ff;stroke-width:1;stroke:#000032"/></a><a xlink:href="https://tglman.com" xlink:title="Tglman.com"><rect x="60" y="560" rx="3" ry="3" width="15" height="15" style="fill:#0000ff;stroke-width:1;stroke:#000032"/></a><a xlink:href="https://tglman.com" xlink:title="Tglman.com"><rect x="60" y="580" rx="3" ry="3" width="15" height="15" style="fill:#0000ff;stroke-width:1;stroke:#000032"/></a><a xlink:href="https://tglman.com" xlink:title="Tglman.com"><rect x="80" y="0" rx="3" ry="3" width="15" height="15" style="fill:#00008c;stroke-width:1;stroke:#000032"/></a><a xlink:href="https://tglman.com" xlink:title="Tglman.com"><rect x="80" y="20" rx="3" ry="3" width="15" height="15" style="fill:#000096;stroke-width:1;stroke:#000032"/></a><a xlink:href="https://tglman.com" xlink:title="Tglman.com"><rect x="80" y="40" rx="3" ry="3" width="15" height="15" style="fill:#0000a0;stroke-width:1;stroke:#000032"/></a><a xlink:href="https://tglman.com" xlink:title="Tglman.com"><rect x="80" y="60" rx="3" ry="3" width="15" height="15" style="fill:#0000aa;stroke-width:1;stroke:#000032"/></a><a xlink:href="https://tglman.com" xlink:title="Tglman.com"><rect x="80" y="80" rx="3" ry="3" width="15" height="15" style="fill:#0000b4;stroke-width:1;stroke:#000032"/></a><a xlink:href="https://tglman.com" xlink:title="Tglman.com"><rect x="80" y="100" rx="3" ry="3" width="15" height="15" style="fill:#0000be;stroke-width:1;stroke:#000032"/></a><a xlink:href="https://tglman.com" xlink:title="Tglman.com"><rect x="80" y="120" rx="3" ry="3" width="15" height="15" style="fill:#0000c8;stroke-width:1;stroke:#000032"/></a><a xlink:href="https://tglman.com" xlink:title="Tglman.com"><rect x="80" y="140" rx="3" ry="3" width="15" height="15" style="fill:#0000d2;stroke-width:1;stroke:#000032"/></a><a xlink:href="https://tglman.com" xlink:title="Tglman.com"><rect x="80" y="160" rx="3" ry="3" width="15" height="15" style="fill:#0000dc;stroke-width:1;stroke:#000032"/></a><a xlink:href="https://tglman.com" xlink:title="Tglman.com"><rect x="80" y="180" rx="3" ry="3" width="15" height="15" style="fill:#0000e6;stroke-width:1;stroke:#000032"/></a><a xlink:href="https://tglman.com" xlink:title="Tglman.com"><rect x="80" y="200" rx="3" ry="3" width="15" height="15" style="fill:#0000f0;stroke-width:1;stroke:#000032"/></a><a xlink:href="https://tglman.com" xlink:title="Tglman.com"><rect x="80" y="220" rx="3" ry="3" width="15" height="15" style="fill:#0000fa;stroke-width:1;stroke:#000032"/></a><a xlink:href="https://tglman.com" xlink:title="Tglman.com"><rect x="80" y="240" rx="3" ry="3" width="15" height="15" style="fill:#0000ff;stroke-width:1;stroke:#000032"/></a><a xlink:href="https://tglman.com" xlink:title="Tglman.com"><rect x="80" y="260" rx="3" ry="3" width="15" height="15" style="fill:#0000ff;stroke-width:1;stroke:#000032"/></a><a xlink:href="https://tglman.com" xlink:title="Tglman.com"><rect x="80" y="280" rx="3" ry="3" width="15" height="15" style="fill:#0000ff;stroke-width:1;stroke:#000032"/></a><a xlink:href="https://tglman.com" xlink:title="Tglman.com"><rect x="80" y="300" rx="3" ry="3" width="15" height="15" style="fill:#0000ff;stroke-width:1;stroke:#000032"/></a><a xlink:href="https://tglman.com" xlink:title="Tglman.com"><rect x="80" y="320" rx="3" ry="3" width="15" height="15" style="fill:#0000ff;stroke-width:1;stroke:#000032"/></a><a xlink:href="https://tglman.com" xlink:title="Tglman.com"><rect x="80" y="340" rx="3" ry="3" width="15" height="15" style="fill:#0000ff;stroke-width:1;stroke:#000032"/></a><a xlink:href="https://tglman.com" xlink:title="Tglman.com"><rect x="80" y="360" rx="3" ry="3" width="15" height="15" style="fill:#0000ff;stroke-width:1;stroke:#000032"/></a><a xlink:href="https://tglman.com" xlink:title="Tglman.com"><rect x="80" y="380" rx="3" ry="3" width="15" height="15" style="fill:#0000ff;stroke-width:1;stroke:#000032"/></a><a xlink:href="https://tglman.com" xlink:title="Tglman.com"><rect x="80" y="400" rx="3" ry="3" width="15" height="15" style="fill:#0000ff;stroke-width:1;stroke:#000032"/></a><a xlink:href="https://tglman.com" xlink:title="Tglman.com"><rect x="80" y="420" rx="3" ry="3" width="15" height="15" style="fill:#0000ff;stroke-width:1;stroke:#000032"/></a><a xlink:href="https://tglman.com" xlink:title="Tglman.com"><rect x="80" y="440" rx="3" ry="3" width="15" height="15" style="fill:#0000ff;stroke-width:1;stroke:#000032"/></a><a xlink:href="https://tglman.com" xlink:title="Tglman.com"><rect x="80" y="460" rx="3" ry="3" width="15" height="15" style="fill:#0000ff;stroke-width:1;stroke:#000032"/></a><a xlink:href="https://tglman.com" xlink:title="Tglman.com"><rect x="80" y="480" rx="3" ry="3" width="15" height="15" style="fill:#0000ff;stroke-width:1;stroke:#000032"/></a><a xlink:href="https://tglman.com" xlink:title="Tglman.com"><rect x="80" y="500" rx="3" ry="3" width="15" height="15" style="fill:#0000ff;stroke-width:1;stroke:#000032"/></a><a xlink:href="https://tglman.com" xlink:title="Tglman.com"><rect x="80" y="520" rx="3" ry="3" width="15" height="15" style="fill:#0000ff;stroke-width:1;stroke:#000032"/></a><a xlink:href="https://tglman.com" xlink:title="Tglman.com"><rect x="80" y="540" rx="3" ry="3" width="15" height="15" style="fill:#0000ff;stroke-width:1;stroke:#000032"/></a><a xlink:href="https://tglman.com" xlink:title="Tglman.com"><rect x="80" y="560" rx="3" ry="3" width="15" height="15" style="fill:#0000ff;stroke-width:1;stroke:#000032"/></a><a xlink:href="https://tglman.com" xlink:title="Tglman.com"><rect x="80" y="580" rx="3" ry="3" width="15" height="15" style="fill:#0000ff;stroke-width:1;stroke:#000032"/></a></svg>