<?xml version="1.0" encoding="UTF-8" standalone="no"?><!DOCTYPE svg PUBLIC "-//W3C//DTD SVG 1.1//EN" "http://www.w3.org/Graphics/SVG/1.1/DTD/svg11.dtd"><svg version="1.1" xmlns="http://www.w3.org/2000/svg" xmlns:xlink="http://www.w3.org/1999/xlink"><a xlink:href="https://tglman.com" xlink:title="Tglman.com"><rect x="0" y="0" rx="3" ry="3" width="15" height="15" style="fill:#000064;stroke-width:1;stroke:#000032"/></a><a xlink:href="https://tglman.com" xlink:title="Tglman.com"><rect x="20" y="0" rx="3" ry="3" width="15" height="15" style="fill:#00006e;stroke-width:1;stroke:#000032"/></a><a xlink:href="https://tglman.com" xlink:title="Tglman.com"><rect x="40" y="0" rx="3" ry="3" width="15" height="15" style="fill:#000078;stroke-width:1;stroke:#000032"/></a><a xlink:href="https://tglman.com" xlink:title="Tglman.com"><rect x="60" y="0" rx="3" ry="3" width="15" height="15" style="fill:#000082;stroke-width:1;stroke:#000032"/></a><a xlink:href="https://tglman.com" xlink:title="Tglman.com"><rect x="80" y="0" rx="3" ry="3" width="15" height="15" style="fill:#00008c;stroke-width:1;stroke:#000032"/></a><a xlink:href="https://tglman.com" xlink:title="Tglman.com"><rect x="100" y="0" rx="3" ry="3" width="15" height="15" style="fill:#000096;stroke-width:1;stroke:#000032"/></a><a xlink:href="https://tglman.com" xlink:title="Tglman.com"><rect x="120" y="0" rx="3" ry="3" width="15" height="15" style="fill:#0000a0;stroke-width:1;stroke:#000032"/></a><a xlink:href="https://tglman.com" xlink:title="Tglman.com"><rect x="140" y="0" rx="3" ry="3" width="15" height="15" style="fill:#0000aa;stroke-width:1;stroke:#000032"/></a><a xlink:href="https://tglman.com" xlink:title="Tglman.com"><rect x="160" y="0" rx="3" ry="3" width="15" height="15" style="fill:#0000b4;stroke-width:1;stroke:#000032"/></a><a xlink:href="https://tglman.com" xlink:title="Tglman.com"><rect x="180" y="0" rx="3" ry="3" width="15" height="15" style="fill:#0000be;stroke-width:1;stroke:#000032"/></a><a xlink:href="https://tglman.com" xlink:title="Tglman.com"><rect x="200" y="0" rx="3" ry="3" width="15" height="15" style="fill:#0000c8;stroke-width:1;stroke:#000032"/></a><a xlink:href="https://tglman.com" xlink:title="Tglman.com"><rect x="220" y="0" rx="3" ry="3" width="15" height="15" style="fill:#0000d2;stroke-width:1;stroke:#000032"/></a><a xlink:href="https://tglman.com" xlink:title="Tglman.com"><rect x="240" y="0" rx="3" ry="3" width="15" height="15" style="fill:#0000dc;stroke-width:1;stroke:#000032"/></a><a xlink:href="https://tglman.com" xlink:title="Tglman.com"><rect x="260" y="0" rx="3" ry="3" width="15" height="15" style="fill:#0000e6;stroke-width:1;stroke:#000032"/></a><a xlink:href="https://tglman.com" xlink:title="Tglman.com"><rect x="280" y="0" rx="3" ry="3" width="15" height="15" style="fill:#0000f0;stroke-width:1;stroke:#000032"/></a><a xlink:href="https://tglman.com" xlink:title="Tglman.com"><rect x="300" y="0" rx="3" ry="3" width="15" height="15" style="fill:#0000fa;stroke-width:1;stroke:#000032"/></a><a xlink:href="https://tglman.com" xlink:title="Tglman.com"><rect x="320" y="0" rx="3" ry="3" width="15" height="15" style="fill:#0000ff;stroke-width:1;stroke:#000032"/></a><a xlink:href="https://tglman.com" xlink:title="Tglman.com"><rect x="340" y="0" rx="3" ry="3" width="15" height="15" style="fill:#0000ff;stroke-width:1;stroke:#000032"/></a><a xlink:href="https://tglman.com" xlink:title="Tglman.com"><rect x="360" y="0" rx="3" ry="3" width="15" height="15" style="fill:#0000ff;stroke-width:1;stroke:#000032"/></a><a xlink:href="https://tglman.com" xlink:title="Tglman.com"><rect x="380" y="0" rx="3" ry="3" width="15" height="15" style="fill:#0000ff;stroke-width:1;stroke:#000032"/></a><a xlink:href="https://tglman.com" xlink:title="Tglman.com"><rect x="400" y="0" rx="3" ry="3" width="15" height="15" style="fill:#0000ff;stroke-width:1;stroke:#000032"/></a><a xlink:href="https://tglman.com" xlink:title="Tglman.com"><rect x="420" y="0" rx="3" ry="3" width="15" height="15" style="fill:#0000ff;stroke-width:1;stroke:#000032"/></a><a xlink:href="https://tglman.com" xlink:title="Tglman.com"><rect x="440" y="0" rx="3" ry="3" width="15" height="15" style="fill:#0000ff;stroke-width:1;stroke:#000032"/></a><a xlink:href="https://tglman.com" xlink:title="Tglman.com"><rect x="460" y="0" rx="3" ry="3" width="15" height="15" style="fill:#0000ff;stroke-width:1;stroke:#000032"/></a><a xlink:href="https://tglman.com" xlink:title="Tglman.com"><rect x="480" y="0" rx="3" ry="3" width="15" height="15" style="fill:#0000ff;stroke-width:1;stroke:#000032"/></a><a xlink:href="https://tglman.com" xlink:title="Tglman.com"><rect x="500" y="0" rx="3" ry="3" width="15" height="15" style="fill:#0000ff;stroke-width:1;stroke:#000032"/></a><a xlink:href="https://tglman.com" xlink:title="Tglman.com"><rect x="520" y="0" rx="3" ry="3" width="15" height="15" style="fill:#0000ff;stroke-width:1;stroke:#000032"/></a><a xlink:href="https://tglman.com" xlink:title="Tglman.com"><rect x="540" y="0" rx="3" ry="3" width="15" height="15" style="fill:#0000ff;stroke-width:1;stroke:#000032"/></a><a xlink:href="https://tglman.com" xlink:title="Tglman.com"><rect x="560" y="0" rx="3" ry="3" width="15" height="15" style="fill:#0000ff;stroke-width:1;stroke:#000032"/></a><a xlink:href="https://tglman.com" xlink:title="Tglman.com"><rect x="580" y="0" rx="3" ry="3" width="15" height="15" style="fill:#0000ff;stroke-width:1;stroke:#000032"/></a><a xlink:href="https://tglman.com" xlink:title="Tglman.com"><rect x="0" y="20" rx="3" ry="3" width="15" height="15" style="fill:#00006e;stroke-width:1;stroke:#000032"/></a><a xlink:href="https://tglman.com" xlink:title="Tglman.com"><rect x="20" y="20" rx="3" ry="3" width="15" height="15" style="fill:#000078;stroke-width:1;stroke:#000032"/></a><a xlink:href="https://tglman.com" xlink:title="Tglman.com"><rect x="40" y="20" rx="3" ry="3" width="15" height="15" style="fill:#000082;stroke-width:1;stroke:#000032"/></a><a xlink:href="https://tglman.com" xlink:title="Tglman.com"><rect x="60" y="20" rx="3" ry="3" width="15" height="15" style="fill:#00008c;stroke-width:1;stroke:#000032"/></a><a xlink:href="https://tglman.com" xlink:title="Tglman.com"><rect x="80" y="20" rx="3" ry="3" width="15" height="15" style="fill:#000096;stroke-width:1;stroke:#000032"/></a><a xlink:href="https://tglman.com" xlink:title="Tglman.com"><rect x="100" y="20" rx="3" ry="3" width="15" height="15" style="fill:#0000a0;stroke-width:1;stroke:#000032"/></a><a xlink:href="https://tglman.com" xlink:title="Tglman.com"><rect x="120" y="20" rx="3" ry="3" width="15" height="15" style="fill:#0000aa;stroke-width:1;stroke:#000032"/></a><a xlink:href="https://tglman.com" xlink:title="Tglman.com"><rect x="140" y="20" rx="3" ry="3" width="15" height="15" style="fill:#0000b4;stroke-width:1;stroke:#000032"/></a><a xlink:href="https://tglman.com" xlink:title="Tglman.com"><rect x="160" y="20" rx="3" ry="3" width="15" height="15" style="fill:#0000be;stroke-width:1;stroke:#000032"/></a><a xlink:href="https://tglman.com" xlink:title="Tglman.com"><rect x="180" y="20" rx="3" ry="3" width="15" height="15" style="fill:#0000c8;stroke-width:1;stroke:#000032"/></a><a xlink:href="https://tglman.com" xlink:title="Tglman.com"><rect x="200" y="20" rx="3" ry="3" width="15" height="15" style="fill:#0000d2;stroke-width:1;stroke:#000032"/></a><a xlink:href="https://tglman.com" xlink:title="Tglman.com"><rect x="220" y="20" rx="3" ry="3" width="15" height="15" style="fill:#0000dc;stroke-width:1;stroke:#000032"/></a><a xlink:href="https://tglman.com" xlink:title="Tglman.com"><rect x="240" y="20" rx="3" ry="3" width="15" height="15" style="fill:#0000e6;stroke-width:1;stroke:#000032"/></a><a xlink:href="https://tglman.com" xlink:title="Tglman.com"><rect x="260" y="20" rx="3" ry="3" width="15" height="15" style="fill:#0000f0;stroke-width:1;stroke:#000032"/></a><a xlink:href="https://tglman.com" xlink:title="Tglman.com"><rect x="280" y="20" rx="3" ry="3" width="15" height="15" style="fill:#0000fa;stroke-width:1;stroke:#000032"/></a><a xlink:href="https://tglman.com" xlink:title="Tglman.com"><rect x="300" y="20" rx="3" ry="3" width="15" height="15" style="fill:#0000ff;stroke-width:1;stroke:#000032"/></a><a xlink:href="https://tglman.com" xlink:title="Tglman.com"><rect x="320" y="20" rx="3" ry="3" width="15" height="15" style="fill:#0000ff;stroke-width:1;stroke:#000032"/></a><a xlink:href="https://tglman.com" xlink:title="Tglman.com"><rect x="340" y="20" rx="3" ry="3" width="15" height="15" style="fill:#0000ff;stroke-width:1;stroke:#000032"/></a><a xlink:href="https://tglman.com" xlink:title="Tglman.com"><rect x="360" y="20" rx="3" ry="3" width="15" height="15" style="fill:#0000ff;stroke-width:1;stroke:#000032"/></a><a xlink:href="https://tglman.com" xlink:title="Tglman.com"><rect x="380" y="20" rx="3" ry="3" width="15" height="15" style="fill:#0000ff;stroke-width:1;stroke:#000032"/></a><a xlink:href="https://tglman.com" xlink:title="Tglman.com"><rect x="400" y="20" rx="3" ry="3" width="15" height="15" style="fill:#0000ff;stroke-width:1;stroke:#000032"/></a><a xlink:href="https://tglman.com" xlink:title="Tglman.com"><rect x="420" y="20" rx="3" ry="3" width="15" height="15" style="fill:#0000ff;stroke-width:1;stroke:#000032"/></a><a xlink:href="https://tglman.com" xlink:title="Tglman.com"><rect x="440" y="20" rx="3" ry="3" width="15" height="15" style="fill:#0000ff;stroke-width:1;stroke:#000032"/></a><a xlink:href="https://tglman.com" xlink:title="Tglman.com"><rect x="460" y="20" rx="3" ry="3" width="15" height="15" style="fill:#0000ff;stroke-width:1;stroke:#000032"/></a><a xlink:href="https://tglman.com" xlink:title="Tglman.com"><rect x="480" y="20" rx="3" ry="3" width="15" height="15" style="fill:#0000ff;stroke-width:1;stroke:#000032"/></a><a xlink:href="https://tglman.com" xlink:title="Tglman.com"><rect x="500" y="20" rx="3" ry="3" width="15" height="15" style="fill:#0000ff;stroke-width:1;stroke:#000032"/></a><a xlink:href="https://tglman.com" xlink:title="Tglman.com"><rect x="520" y="20" rx="3" ry="3" width="15" height="15" style="fill:#0000ff;stroke-width:1;stroke:#000032"/></a><a xlink:href="https://tglman.com" xlink:title="Tglman.com"><rect x="540" y="20" rx="3" ry="3" width="15" height="15" style="fill:#0000ff;stroke-width:1;stroke:#000032"/></a><a xlink:href="https://tglman.com" xlink:title="Tglman.com"><rect x="560" y="20" rx="3" ry="3" width="15" height="15" style="fill:#0000ff;stroke-width:1;stroke:#000032"/></a><a xlink:href="https://tglman.com" xlink:title="Tglman.com"><rect x="580" y="20" rx="3" ry="3" width="15" height="15" style="fill:#0000ff;stroke-width:1;stroke:#000032"/></a><a xlink:href="https://tglman.com" xlink:title="Tglman.com"><rect x="0" y="40" rx="3" ry="3" width="15" height="15" style="fill:#000078;stroke-width:1;stroke:#000032"/></a><a xlink:href="https://tglman.com" xlink:title="Tglman.com"><rect x="20" y="40" rx="3" ry="3" width="15" height="15" style="fill:#000082;stroke-width:1;stroke:#000032"/></a><a xlink:href="https://tglman.com" xlink:title="Tglman.com"><rect x="40" y="40" rx="3" ry="3" width="15" height="15" style="fill:#00008c;stroke-width:1;stroke:#000032"/></a><a xlink:href="https://tglman.com" xlink:title="Tglman.com"><rect x="60" y="40" rx="3" ry="3" width="15" height="15" style="fill:#000096;stroke-width:1;stroke:#000032"/></a><a xlink:href="https://tglman.com" xlink:title="Tglman.com"><rect x="80" y="40" rx="3" ry="3" width="15" height="15" style="fill:#0000a0;stroke-width:1;stroke:#000032"/></a><a xlink:href="https://tglman.com" xlink:title="Tglman.com"><rect x="100" y="40" rx="3" ry="3" width="15" height="15" style="fill:#0000aa;stroke-width:1;stroke:#000032"/></a><a xlink:href="https://tglman.com" xlink:title="Tglman.com"><rect x="120" y="40" rx="3" ry="3" width="15" height="15" style="fill:#0000b4;stroke-width:1;stroke:#000032"/></a><a xlink:href="https://tglman.com" xlink:title="Tglman.com"><rect x="140" y="40" rx="3" ry="3" width="15" height="15" style="fill:#0000be;stroke-width:1;stroke:#000032"/></a><a xlink:href="https://tglman.com" xlink:title="Tglman.com"><rect x="160" y="40" rx="3" ry="3" width="15" height="15" style="fill:#0000c8;stroke-width:1;stroke:#000032"/></a><a xlink:href="https://tglman.com" xlink:title="Tglman.com"><rect x="180" y="40" rx="3" ry="3" width="15" height="15" style="fill:#0000d2;stroke-width:1;stroke:#000032"/></a><a xlink:href="https://tglman.com" xlink:title="Tglman.com"><rect x="200" y="40" rx="3" ry="3" width="15" height="15" style="fill:#0000dc;stroke-width:1;stroke:#000032"/></a><a xlink:href="https://tglman.com" xlink:title="Tglman.com"><rect x="220" y="40" rx="3" ry="3" width="15" height="15" style="fill:#0000e6;stroke-width:1;stroke:#000032"/></a><a xlink:href="https://tglman.com" xlink:title="Tglman.com"><rect x="240" y="40" rx="3" ry="3" width="15" height="15" style="fill:#0000f0;stroke-width:1;stroke:#000032"/></a><a xlink:href="https://tglman.com" xlink:title="Tglman.com"><rect x="260" y="40" rx="3" ry="3" width="15" height="15" style="fill:#0000fa;stroke-width:1;stroke:#000032"/></a><a xlink:href="https://tglman.com" xlink:title="Tglman.com"><rect x="280" y="40" rx="3" ry="3" width="15" height="15" style="fill:#0000ff;stroke-width:1;stroke:#000032"/></a><a xlink:href="https://tglman.com" xlink:title="Tglman.com"><rect x="300" y="40" rx="3" ry="3" width="15" height="15" style="fill:#0000ff;stroke-width:1;stroke:#000032"/></a><a xlink:href="https://tglman.com" xlink:title="Tglman.com"><rect x="320" y="40" rx="3" ry="3" width="15" height="15" style="fill:#0000ff;stroke-width:1;stroke:#000032"/></a><a xlink:href="https://tglman.com" xlink:title="Tglman.com"><rect x="340" y="40" rx="3" ry="3" width="15" height="15" style="fill:#0000ff;stroke-width:1;stroke:#000032"/></a><a xlink:href="https://tglman.com" xlink:title="Tglman.com"><rect x="360" y="40" rx="3" ry="3" width="15" height="15" style="fill:#0000ff;stroke-width:1;stroke:#000032"/></a><a xlink:href="https://tglman.com" xlink:title="Tglman.com"><rect x="380" y="40" rx="3" ry="3" width="15" height="15" style="fill:#0000ff;stroke-width:1;stroke:#000032"/></a><a xlink:href="https://tglman.com" xlink:title="Tglman.com"><rect x="400" y="40" rx="3" ry="3" width="15" height="15" style="fill:#0000ff;stroke-width:1;stroke:#000032"/></a><a xlink:href="https://tglman.com" xlink:title="Tglman.com"><rect x="420" y="40" rx="3" ry="3" width="15" height="15" style="fill:#0000ff;stroke-width:1;stroke:#000032"/></a><a xlink:href="https://tglman.com" xlink:title="Tglman.com"><rect x="440" y="40" rx="3" ry="3" width="15" height="15" style="fill:#0000ff;stroke-width:1;stroke:#000032"/></a><a xlink:href="https://tglman.com" xlink:title="Tglman.com"><rect x="460" y="40" rx="3" ry="3" width="15" height="15" style="fill:#0000ff;stroke-width:1;stroke:#000032"/></a><a xlink:href="https://tglman.com" xlink:title="Tglman.com"><rect x="480" y="40" rx="3" ry="3" width="15" height="15" style="fill:#0000ff;stroke-width:1;stroke:#000032"/></a><a xlink:href="https://tglman.com" xlink:title="Tglman.com"><rect x="500" y="40" rx="3" ry="3" width="15" height="15" style="fill:#0000ff;stroke-width:1;stroke:#000032"/></a><a xlink:href="https://tglman.com" xlink:title="Tglman.com"><rect x="520" y="40" rx="3" ry="3" width="15" height="15" style="fill:#0000ff;stroke-width:1;stroke:#000032"/></a><a xlink:href="https://tglman.com" xlink:title="Tglman.com"><rect x="540" y="40" rx="3" ry="3" width="15" height="15" style="fill:#0000ff;stroke-width:1;stroke:#000032"/></a><a xlink:href="https://tglman.com" xlink:title="Tglman.com"><rect x="560" y="40" rx="3" ry="3" width="15" height="15" style="fill:#0000ff;stroke-width:1;stroke:#000032"/></a><a xlink:href="https://tglman.com" xlink:title="Tglman.com"><rect x="580" y="40" rx="3" ry="3" width="15" height="15" style="fill:#0000ff;stroke-width:1;stroke:#000032"/></a><a xlink:href="https://tglman.com" xlink:title="Tglman.com"><rect x="0" y="60" rx="3" ry="3" width="15" height="15" style="fill:#000082;stroke-width:1;stroke:#000032"/></a><a xlink:href="https://tglman.com" xlink:title="Tglman.com"><rect x="20" y="60" rx="3" ry="3" width="15" height="15" style="fill:#00008c;stroke-width:1;stroke:#000032"/></a><a xlink:href="https://tglman.com" xlink:title="Tglman.com"><rect x="40" y="60" rx="3" ry="3" width="15" height="15" style="fill:#000096;stroke-width:1;stroke:#000032"/></a><a xlink:href="https://tglman.com" xlink:title="Tglman.com"><rect x="60" y="60" rx="3" ry="3" width="15" height="15" style="fill:#0000a0;stroke-width:1;stroke:#000032"/></a><a xlink:href="https://tglman.com" xlink:title="Tglman.com"><rect x="80" y="60" rx="3" ry="3" width="15" height="15" style="fill:#0000aa;stroke-width:1;stroke:#000032"/></a><a xlink:href="https://tglman.com" xlink:title="Tglman.com"><rect x="100" y="60" rx="3" ry="3" width="15" height="15" style="fill:#0000b4;stroke-width:1;stroke:#000032"/></a><a xlink:href="https://tglman.com" xlink:title="Tglman.com"><rect x="120" y="60" rx="3" ry="3" width="15" height="15" style="fill:#0000be;stroke-width:1;stroke:#000032"/></a><a xlink:href="https://tglman.com" xlink:title="Tglman.com"><rect x="140" y="60" rx="3" ry="3" width="15" height="15" style="fill:#0000c8;stroke-width:1;stroke:#000032"/></a><a xlink:href="https://tglman.com" xlink:title="Tglman.com"><rect x="160" y="60" rx="3" ry="3" width="15" height="15" style="fill:#0000d2;stroke-width:1;stroke:#000032"/></a><a xlink:href="https://tglman.com" xlink:title="Tglman.com"><rect x="180" y="60" rx="3" ry="3" width="15" height="15" style="fill:#0000dc;stroke-width:1;stroke:#000032"/></a><a xlink:href="https://tglman.com" xlink:title="Tglman.com"><rect x="200" y="60" rx="3" ry="3" width="15" height="15" style="fill:#0000e6;stroke-width:1;stroke:#000032"/></a><a xlink:href="https://tglman.com" xlink:title="Tglman.com"><rect x="220" y="60" rx="3" ry="3" width="15" height="15" style="fill:#0000f0;stroke-width:1;stroke:#000032"/></a><a xlink:href="https://tglman.com" xlink:title="Tglman.com"><rect x="240" y="60" rx="3" ry="3" width="15" height="15" style="fill:#0000fa;stroke-width:1;stroke:#000032"/></a><a xlink:href="https://tglman.com" xlink:title="Tglman.com"><rect x="260" y="60" rx="3" ry="3" width="15" height="15" style="fill:#0000ff;stroke-width:1;stroke:#000032"/></a><a xlink:href="https://tglman.com" xlink:title="Tglman.com"><rect x="280" y="60" rx="3" ry="3" width="15" height="15" style="fill:#0000ff;stroke-width:1;stroke:#000032"/></a><a xlink:href="https://tglman.com" xlink:title="Tglman.com"><rect x="300" y="60" rx="3" ry="3" width="15" height="15" style="fill:#0000ff;stroke-width:1;stroke:#000032"/></a><a xlink:href="https://tglman.com" xlink:title="Tglman.com"><rect x="320" y="60" rx="3" ry="3" width="15" height="15" style="fill:#0000ff;stroke-width:1;stroke:#000032"/></a><a xlink:href="https://tglman.com" xlink:title="Tglman.com"><rect x="340" y="60" rx="3" ry="3" width="15" height="15" style="fill:#0000ff;stroke-width:1;stroke:#000032"/></a><a xlink:href="https://tglman.com" xlink:title="Tglman.com"><rect x="360" y="60" rx="3" ry="3" width="15" height="15" style="fill:#0000ff;stroke-width:1;stroke:#000032"/></a><a xlink:href="https://tglman.com" xlink:title="Tglman.com"><rect x="380" y="60" rx="3" ry="3" width="15" height="15" style="fill:#0000ff;stroke-width:1;stroke:#000032"/></a><a xlink:href="https://tglman.com" xlink:title="Tglman.com"><rect x="400" y="60" rx="3" ry="3" width="15" height="15" style="fill:#0000ff;stroke-width:1;stroke:#000032"/></a><a xlink:href="https://tglman.com" xlink:title="Tglman.com"><rect x="420" y="60" rx="3" ry="3" width="15" height="15" style="fill:#0000ff;stroke-width:1;stroke:#000032"/></a><a xlink:href="https://tglman.com" xlink:title="Tglman.com"><rect x="440" y="60" rx="3" ry="3" width="15" height="15" style="fill:#0000ff;stroke-width:1;stroke:#000032"/></a><a xlink:href="https://tglman.com" xlink:title="Tglman.com"><rect x="460" y="60" rx="3" ry="3" width="15" height="15" style="fill:#0000ff;stroke-width:1;stroke:#000032"/></a><a xlink:href="https://tglman.com" xlink:title="Tglman.com"><rect x="480" y="60" rx="3" ry="3" width="15" height="15" style="fill:#0000ff;stroke-width:1;stroke:#000032"/></a><a xlink:href="https://tglman.com" xlink:title="Tglman.com"><rect x="500" y="60" rx="3" ry="3" width="15" height="15" style="fill:#0000ff;stroke-width:1;stroke:#000032"/></a><a xlink:href="https://tglman.com" xlink:title="Tglman.com"><rect x="520" y="60" rx="3" ry="3" width="15" height="15" style="fill:#0000ff;stroke-width:1;stroke:#000032"/></a><a xlink:href="https://tglman.com" xlink:title="Tglman.com"><rect x="540" y="60" rx="3" ry="3" width="15" height="15" style="fill:#0000ff;stroke-width:1;stroke:#000032"/></a><a xlink:href="https://tglman.com" xlink:title="Tglman.com"><rect x="560" y="60" rx="3" ry="3" width="15" height="15" style="fill:#0000ff;stroke-width:1;stroke:#000032"/></a><a xlink:href="https://tglman.com" xlink:title="Tglman.com"><rect x="580" y="60" rx="3" ry="3" width="15" height="15" style="fill:#0000ff;stroke-width:1;stroke:#000032"/></a><a xlink:href="https://tglman.com" xlink:title="Tglman.com"><rect x="0" y="80" rx="3" ry="3" width="15" height="15" style="fill:#00008c;stroke-width:1;stroke:#000032"/></a><a xlink:href="https://tglman.com" xlink:title="Tglman.com"><rect x="20" y="80" rx="3" ry="3" width="15" height="15" style="fill:#000096;stroke-width:1;stroke:#000032"/></a><a xlink:href="https://tglman.com" xlink:title="Tglman.com"><rect x="40" y="80" rx="3" ry="3" width="15" height="15" style="fill:#0000a0;stroke-width:1;stroke:#000032"/></a><a xlink:href="https://tglman.com" xlink:title="Tglman.com"><rect x="60" y="80" rx="3" ry="3" width="15" height="15" style="fill:#0000aa;stroke-width:1;stroke:#000032"/></a><a xlink:href="https://tglman.com" xlink:title="Tglman.com"><rect x="80" y="80" rx="3" ry="3" width="15" height="15" style="fill:#0000b4;stroke-width:1;stroke:#000032"/></a><a xlink:href="https://tglman.com" xlink:title="Tglman.com"><rect x="100" y="80" rx="3" ry="3" width="15" height="15" style="fill:#0000be;stroke-width:1;stroke:#000032"/></a><a xlink:href="https://tglman.com" xlink:title="Tglman.com"><rect x="120" y="80" rx="3" ry="3" width="15" height="15" style="fill:#0000c8;stroke-width:1;stroke:#000032"/></a><a xlink:href="https://tglman.com" xlink:title="Tglman.com"><rect x="140" y="80" rx="3" ry="3" width="15" height="15" style="fill:#0000d2;stroke-width:1;stroke:#000032"/></a><a xlink:href="https://tglman.com" xlink:title="Tglman.com"><rect x="160" y="80" rx="3" ry="3" width="15" height="15" style="fill:#0000dc;stroke-width:1;stroke:#000032"/></a><a xlink:href="https://tglman.com" xlink:title="Tglman.com"><rect x="180" y="80" rx="3" ry="3" width="15" height="15" style="fill:#0000e6;stroke-width:1;stroke:#000032"/></a><a xlink:href="https://tglman.com" xlink:title="Tglman.com"><rect x="200" y="80" rx="3" ry="3" width="15" height="15" style="fill:#0000f0;stroke-width:1;stroke:#000032"/></a><a xlink:href="https://tglman.com" xlink:title="Tglman.com"><rect x="220" y="80" rx="3" ry="3" width="15" height="15" style="fill:#0000fa;stroke-width:1;stroke:#000032"/></a><a xlink:href="https://tglman.com" xlink:title="Tglman.com"><rect x="240" y="80" rx="3" ry="3" width="15" height="15" style="fill:#0000ff;stroke-width:1;stroke:#000032"/></a><a xlink:href="https://tglman.com" xlink:title="Tglman.com"><rect x="260" y="80" rx="3" ry="3" width="15" height="15" style="fill:#0000ff;stroke-width:1;stroke:#000032"/></a><a xlink:href="https://tglman.com" xlink:title="Tglman.com"><rect x="280" y="80" rx="3" ry="3" width="15" height="15" style="fill:#0000ff;stroke-width:1;stroke:#000032"/></a><a xlink:href="https://tglman.com" xlink:title="Tglman.com"><rect x="300" y="80" rx="3" ry="3" width="15" height="15" style="fill:#0000ff;stroke-width:1;stroke:#000032"/></a><a xlink:href="https://tglman.com" xlink:title="Tglman.com"><rect x="320" y="80" rx="3" ry="3" width="15" height="15" style="fill:#0000ff;stroke-width:1;stroke:#000032"/></a><a xlink:href="https://tglman.com" xlink:title="Tglman.com"><rect x="340" y="80" rx="3" ry="3" width="15" height="15" style="fill:#0000ff;stroke-width:1;stroke:#000032"/></a><a xlink:href="https://tglman.com" xlink:title="Tglman.com"><rect x="360" y="80" rx="3" ry="3" width="15" height="15" style="fill:#0000ff;stroke-width:1;stroke:#000032"/></a><a xlink:href="https://tglman.com" xlink:title="Tglman.com"><rect x="380" y="80" rx="3" ry="3" width="15" height="15" style="fill:#0000ff;stroke-width:1;stroke:#000032"/></a><a xlink:href="https://tglman.com" xlink:title="Tglman.com"><rect x="400" y="80" rx="3" ry="3" width="15" height="15" style="fill:#0000ff;stroke-width:1;stroke:#000032"/></a><a xlink:href="https://tglman.com" xlink:title="Tglman.com"><rect x="420" y="80" rx="3" ry="3" width="15" height="15" style="fill:#0000ff;stroke-width:1;stroke:#000032"/></a><a xlink:href="https://tglman.com" xlink:title="Tglman.com"><rect x="440" y="80" rx="3" ry="3" width="15" height="15" style="fill:#0000ff;stroke-width:1;stroke:#000032"/></a><a xlink:href="https://tglman.com" xlink:title="Tglman.com"><rect x="460" y="80" rx="3" ry="3" width="15" height="15" style="fill:#0000ff;stroke-width:1;stroke:#000032"/></a><a xlink:href="https://tglman.com" xlink:title="Tglman.com"><rect x="480" y="80" rx="3" ry="3" width="15" height="15" style="fill:#0000ff;stroke-width:1;stroke:#000032"/></a><a xlink:href="https://tglman.com" xlink:title="Tglman.com"><rect x="500" y="80" rx="3" ry="3" width="15" height="15" style="fill:#0000ff;stroke-width:1;stroke:#000032"/></a><a xlink:href="https://tglman.com" xlink:title="Tglman.com"><rect x="520" y="80" rx="3" ry="3" width="15" height="15" style="fill:#0000ff;stroke-width:1;stroke:#000032"/></a><a xlink:href="https://tglman.com" xlink:title="Tglman.com"><rect x="540" y="80" rx="3" ry="3" width="15" height="15" style="fill:#0000ff;stroke-width:1;stroke:#000032"/></a><a xlink:href="https://tglman.com" xlink:title="Tglman.com"><rect x="560" y="80" rx="3" ry="3" width="15" height="15" style="fill:#0000ff;stroke-width:1;stroke:#000032"/></a><a xlink:href="https://tglman.com" xlink:title="Tglman.com"><rect x="580" y="80" rx="3" ry="3" width="15" height="15" style="fill:#0000ff;stroke-width:1;stroke:#000032"/></a></svg>